<?xml version="1.0" standalone="no"?>
<!DOCTYPE svg PUBLIC "-//W3C//DTD SVG 20010904//EN"
 "http://www.w3.org/TR/2001/REC-SVG-20010904/DTD/svg10.dtd">
<svg version="1.0" xmlns="http://www.w3.org/2000/svg"
 width="1650.000000pt" height="1650.000000pt" viewBox="0 0 1650.000000 1650.000000"
 preserveAspectRatio="xMidYMid meet">
<metadata>
Created by potrace 1.14, written by Peter Selinger 2001-2017
</metadata>
<g transform="translate(0.000000,1650.000000) scale(0.100000,-0.100000)"
fill="#000000" stroke="none">
<path d="M4657 12584 c-3 -3 -26 -7 -52 -9 -178 -16 -316 -54 -477 -135 -445
-224 -714 -650 -729 -1155 -2 -54 10 -225 16 -235 3 -4 7 -25 10 -46 4 -22 9
-48 12 -59 4 -11 8 -24 9 -30 10 -40 15 -56 31 -100 10 -27 21 -51 26 -53 4
-2 7 -10 7 -18 0 -18 74 -159 106 -201 13 -17 24 -36 24 -41 0 -6 3 -12 8 -14
4 -1 25 -25 47 -53 58 -73 161 -170 235 -223 36 -25 67 -49 70 -52 22 -23 245
-128 310 -145 3 -1 12 -4 20 -7 27 -11 164 -41 210 -46 67 -8 287 -7 350 1
227 31 434 119 635 270 35 26 190 180 221 219 31 39 94 137 94 146 0 6 4 12 8
14 13 5 92 169 92 190 0 10 5 18 12 18 6 0 9 2 6 5 -3 3 3 34 14 68 23 72 26
86 34 147 3 25 9 59 13 75 7 31 5 253 -3 315 -14 111 -43 224 -79 310 -6 14
-11 27 -12 30 -1 3 -9 22 -18 44 -9 21 -17 41 -17 44 0 3 -6 13 -14 21 -7 9
-26 39 -41 66 -52 96 -197 262 -309 353 -74 61 -297 188 -343 195 -10 1 -22 5
-28 9 -13 8 -189 54 -239 63 -22 4 -84 8 -138 10 -54 2 -102 6 -107 9 -4 3
-11 3 -14 0z m167 -470 c33 -3 68 -10 78 -15 10 -5 18 -8 18 -5 0 9 139 -44
198 -75 122 -67 263 -198 317 -297 11 -20 22 -39 26 -42 14 -13 70 -154 84
-215 19 -77 25 -254 12 -337 -19 -121 -76 -257 -150 -361 -54 -75 -202 -217
-226 -217 -5 0 -16 -6 -23 -12 -18 -17 -98 -61 -98 -53 0 3 -10 -1 -23 -10
-12 -8 -32 -16 -42 -18 -11 -1 -24 -5 -30 -9 -5 -3 -23 -9 -40 -12 -16 -3 -41
-9 -55 -13 -49 -12 -257 -11 -313 2 -32 7 -57 11 -57 9 0 -3 -6 -2 -12 3 -7 4
-15 8 -18 8 -35 5 -210 85 -210 97 0 4 -7 8 -15 8 -8 0 -15 4 -15 9 0 5 -8 12
-18 15 -27 9 -144 124 -190 187 -75 104 -130 233 -152 359 -12 66 -15 215 -5
260 3 14 7 39 10 55 8 51 8 50 48 158 12 31 25 57 29 57 5 0 8 9 8 19 0 11 6
26 13 33 6 7 25 32 41 56 77 113 203 218 336 280 119 56 198 75 302 76 32 1
58 4 58 7 0 3 12 5 28 3 15 -2 54 -7 86 -10z"/>
<path d="M4605 11984 c-88 -15 -100 -18 -155 -40 -292 -116 -477 -398 -464
-707 1 -34 5 -73 7 -87 3 -14 8 -42 12 -63 4 -20 11 -40 16 -43 5 -3 9 -15 10
-27 0 -26 62 -141 104 -194 61 -77 169 -173 194 -173 6 0 11 -3 11 -7 0 -9 49
-33 67 -33 7 0 13 -4 13 -10 0 -5 8 -10 18 -10 10 0 22 -4 28 -9 5 -6 20 -12
34 -14 14 -2 32 -7 40 -10 26 -12 197 -26 214 -18 5 2 29 5 55 7 42 3 82 9 89
14 1 2 5 3 10 5 4 1 21 5 37 10 35 10 161 73 190 95 31 23 147 141 173 175 59
78 113 223 127 345 4 30 8 56 10 58 1 2 -1 19 -5 38 -5 20 -4 34 2 34 5 0 6 6
1 13 -4 6 -9 21 -10 32 -8 52 -20 110 -23 110 -1 0 -3 8 -5 18 -9 45 -97 204
-122 220 -7 4 -13 12 -13 17 0 27 -172 163 -240 190 -19 7 -39 17 -45 21 -10
7 -88 31 -115 35 -8 1 -33 5 -54 9 -68 12 -139 11 -211 -1z"/>
<path d="M11487 12574 c-1 -2 -25 -5 -52 -8 -500 -54 -952 -438 -1093 -931
-19 -67 -23 -84 -38 -165 -19 -106 -19 -259 -1 -411 6 -48 41 -190 56 -224 5
-11 23 -56 41 -100 19 -44 42 -92 52 -107 10 -14 18 -30 18 -35 0 -6 9 -18 20
-28 11 -10 17 -22 14 -26 -3 -5 -1 -9 3 -9 5 0 17 -14 28 -32 39 -66 179 -211
270 -278 33 -25 62 -47 65 -50 18 -19 207 -114 275 -139 70 -26 68 -25 120
-36 22 -4 45 -10 50 -14 6 -3 17 -6 25 -8 8 -1 38 -6 65 -10 65 -10 325 -9
395 1 30 4 80 14 110 22 30 8 63 17 73 19 9 2 22 7 27 10 5 3 19 8 31 10 37 7
225 101 289 145 56 38 197 153 210 172 3 4 25 29 48 55 50 58 122 154 122 164
0 4 6 14 13 21 26 26 115 222 133 293 2 6 10 37 20 70 18 67 21 81 31 180 11
117 8 238 -11 370 -14 93 -62 236 -117 348 -37 76 -95 175 -109 187 -3 3 -19
23 -36 45 -39 53 -169 183 -219 220 -22 16 -42 31 -45 35 -11 11 -90 60 -99
60 -5 0 -11 4 -13 9 -4 12 -176 92 -228 106 -3 1 -12 5 -20 8 -20 8 -170 47
-178 46 -4 -1 -9 0 -12 1 -18 8 -326 21 -333 14z m292 -474 c12 -6 21 -8 21
-6 0 3 18 -1 40 -9 22 -8 40 -12 40 -10 0 8 194 -93 225 -117 57 -44 172 -164
208 -219 52 -79 102 -193 122 -279 21 -92 27 -245 13 -319 -5 -25 -11 -59 -14
-75 -2 -15 -11 -44 -19 -63 -8 -19 -14 -37 -13 -41 3 -10 -61 -133 -80 -154
-8 -10 -12 -18 -8 -18 4 0 1 -6 -6 -14 -7 -7 -29 -33 -48 -56 -41 -51 -104
-111 -157 -150 -44 -33 -193 -112 -193 -104 0 4 -6 2 -12 -4 -7 -5 -29 -13
-48 -18 -50 -11 -50 -11 -52 -14 -22 -17 -260 -28 -318 -15 -14 4 -29 7 -35 9
-5 1 -38 8 -72 16 -35 8 -63 17 -63 20 0 4 -6 7 -13 7 -18 0 -131 58 -184 94
-114 79 -231 218 -288 344 -15 32 -28 64 -30 69 -1 6 -5 18 -8 26 -5 14 -16
57 -23 90 -18 84 -24 209 -13 275 4 22 9 54 12 70 8 50 47 156 84 230 50 99
142 207 238 281 96 72 294 160 343 151 12 -2 22 -1 22 4 0 12 53 16 187 13 67
-1 131 -7 142 -14z"/>
<path d="M11477 11984 c-2 -3 -14 -7 -26 -9 -68 -13 -166 -52 -219 -87 -24
-15 -45 -28 -47 -28 -18 0 -172 -156 -180 -181 -4 -11 -10 -19 -13 -19 -4 0
-16 -20 -27 -45 -11 -25 -23 -45 -27 -45 -5 0 -8 -8 -8 -18 0 -10 -3 -22 -7
-26 -4 -3 -8 -12 -10 -19 -1 -7 -11 -45 -21 -86 -19 -74 -22 -217 -8 -286 60
-276 239 -480 493 -563 95 -31 240 -44 328 -29 55 9 103 21 131 33 17 7 34 10
38 7 3 -4 6 -1 6 5 0 7 7 12 15 12 24 0 168 92 210 135 99 99 186 255 210 375
14 70 13 241 -1 299 -8 31 -17 67 -20 80 -7 34 -69 155 -101 198 -35 49 -118
132 -163 165 -74 54 -197 109 -280 126 -34 6 -267 12 -273 6z"/>
<path d="M5820 10385 c-106 -154 -276 -299 -456 -389 -92 -46 -234 -100 -234
-90 0 4 -7 1 -15 -6 -8 -7 -15 -10 -15 -7 0 3 -15 1 -32 -5 -18 -5 -49 -11
-68 -13 -19 -2 -48 -5 -63 -7 -15 -1 -26 -7 -25 -13 2 -6 41 -44 88 -85 100
-86 359 -346 445 -445 33 -38 70 -80 83 -93 12 -13 22 -25 22 -28 0 -3 9 -15
20 -27 36 -39 70 -80 133 -162 33 -44 64 -82 68 -85 3 -3 19 -24 35 -46 73
-104 129 -179 136 -182 4 -2 8 -10 8 -18 0 -8 4 -14 8 -14 5 0 14 -10 21 -22
6 -13 19 -35 29 -49 9 -14 42 -64 73 -110 31 -46 73 -112 95 -147 21 -35 56
-90 77 -122 20 -33 37 -64 37 -70 0 -5 4 -10 9 -10 5 0 11 -8 15 -17 3 -10 13
-31 23 -48 151 -253 349 -653 462 -930 29 -71 57 -139 62 -150 5 -11 18 -47
30 -80 11 -33 23 -67 26 -75 4 -8 7 -17 7 -20 1 -3 6 -18 13 -35 20 -54 26
-70 28 -80 2 -5 19 -62 38 -125 31 -101 57 -196 74 -265 2 -11 6 -33 9 -48 2
-16 6 -32 9 -37 5 -8 17 -75 18 -97 0 -7 2 -13 4 -13 2 0 50 47 106 103 103
105 177 166 277 228 52 32 170 92 215 109 11 5 36 14 55 21 19 8 40 15 45 16
6 1 37 9 70 19 75 20 70 19 130 28 79 12 81 13 44 44 -59 47 -80 66 -142 122
-110 100 -287 282 -412 424 -38 43 -85 99 -115 136 -19 24 -45 53 -57 66 -13
13 -23 26 -23 30 0 5 -11 19 -24 33 -13 15 -67 85 -120 156 -52 72 -99 135
-104 140 -4 6 -27 39 -51 75 -24 36 -48 67 -53 68 -4 2 -8 8 -8 13 0 5 -39 69
-87 142 -49 74 -95 146 -103 160 -8 15 -44 75 -79 134 -35 60 -71 122 -80 138
-9 17 -18 32 -21 35 -7 7 -39 67 -149 285 -113 222 -146 293 -236 505 -15 36
-33 79 -41 95 -14 33 -26 66 -73 200 -18 50 -36 99 -41 110 -5 11 -14 38 -20
60 -6 22 -14 47 -17 55 -3 8 -7 20 -8 25 -2 6 -14 48 -29 95 -14 47 -26 88
-26 92 -1 4 -6 22 -11 40 -6 18 -12 42 -14 53 -3 11 -7 29 -9 40 -3 11 -14 62
-25 114 -11 51 -22 95 -24 98 -3 2 -19 -16 -37 -42z"/>
<path d="M3580 10350 c0 -11 -1 -23 -2 -27 -6 -26 -19 -92 -23 -114 -2 -14 -9
-48 -15 -75 -7 -27 -13 -56 -15 -64 -39 -191 -195 -669 -287 -880 -10 -25 -23
-54 -28 -65 -5 -11 -19 -45 -32 -75 -14 -30 -31 -71 -39 -90 -22 -54 -262
-534 -269 -540 -4 -3 -9 -9 -11 -15 -9 -23 -103 -190 -110 -195 -3 -3 -16 -23
-28 -45 -82 -153 -427 -665 -476 -705 -8 -7 -15 -16 -15 -21 0 -9 -32 -49 -72
-91 -10 -10 -15 -18 -10 -18 4 0 3 -4 -3 -8 -5 -4 -32 -34 -60 -67 -51 -62
-65 -78 -156 -180 -121 -135 -379 -382 -410 -393 -23 -9 -5 -21 39 -28 50 -7
73 -11 112 -19 14 -2 37 -7 53 -10 57 -11 74 -15 127 -36 30 -11 69 -25 85
-31 17 -6 33 -16 37 -22 4 -6 8 -8 8 -3 0 7 47 -16 95 -46 11 -6 43 -26 71
-44 53 -32 71 -45 131 -98 66 -57 155 -152 189 -199 18 -26 30 -13 37 39 6 39
43 232 52 268 3 9 7 26 10 38 2 11 7 29 10 39 3 10 8 28 10 41 10 50 100 350
116 384 5 11 11 29 14 40 4 22 113 306 141 370 10 22 18 42 19 45 6 19 20 52
41 92 14 26 24 49 24 50 -3 5 71 161 150 318 99 198 113 224 123 228 4 2 7 8
7 12 0 8 77 147 120 220 98 163 264 423 285 447 5 6 41 57 79 112 38 56 73
101 78 101 4 0 8 6 8 13 1 10 89 125 193 251 88 106 167 195 245 275 39 41 72
76 72 77 0 3 53 54 141 136 20 18 53 47 75 65 27 22 34 33 24 36 -18 5 -138
29 -160 32 -8 1 -25 5 -37 9 -12 4 -30 9 -40 11 -16 3 -57 18 -157 57 -63 24
-210 108 -268 152 -14 12 -40 32 -57 44 -17 13 -49 40 -71 60 -22 21 -45 42
-52 48 -7 6 -33 34 -57 62 -47 56 -61 63 -61 32z"/>
<path d="M10469 10353 c-3 -37 -11 -82 -24 -143 -4 -14 -8 -38 -11 -55 -3 -16
-7 -37 -10 -45 -3 -8 -8 -26 -10 -40 -3 -14 -19 -77 -35 -140 -17 -63 -32
-119 -34 -125 -1 -5 -4 -17 -7 -25 -3 -8 -25 -76 -49 -150 -24 -74 -65 -191
-91 -260 -27 -69 -51 -134 -53 -144 -3 -11 -10 -23 -17 -28 -7 -4 -10 -8 -6
-8 4 0 -3 -24 -16 -52 -25 -59 -38 -90 -41 -98 -12 -39 -245 -512 -309 -627
-113 -202 -383 -644 -406 -663 -3 -3 -39 -52 -79 -110 -41 -58 -78 -106 -82
-108 -5 -2 -9 -9 -9 -15 0 -7 -15 -29 -33 -49 -17 -21 -40 -48 -49 -60 -26
-35 -121 -152 -128 -158 -3 -3 -16 -18 -29 -35 -98 -129 -502 -535 -532 -535
-6 0 -9 -5 -7 -12 4 -12 19 -16 89 -22 26 -2 51 -6 57 -10 5 -3 27 -8 48 -10
49 -5 180 -48 262 -87 35 -16 67 -29 72 -29 6 0 10 -4 10 -10 0 -5 5 -10 10
-10 13 0 75 -40 155 -99 64 -47 192 -172 239 -234 16 -21 31 -36 33 -34 6 6
14 47 18 87 2 19 7 46 10 60 3 14 8 36 11 50 3 14 10 45 15 70 6 25 13 56 15
69 22 115 146 516 212 683 16 42 27 79 24 82 -3 3 0 6 6 6 7 0 12 7 12 15 0 8
9 34 19 58 11 23 36 82 56 131 20 49 41 96 45 105 25 46 80 171 80 180 0 6 5
11 10 11 6 0 10 6 10 13 0 7 16 44 36 82 119 231 169 323 186 348 11 15 17 27
15 27 -3 0 36 69 87 153 51 83 99 163 107 177 8 13 19 30 24 36 12 14 86 129
100 155 5 11 13 19 17 19 5 0 8 5 8 11 0 5 15 30 33 53 17 24 39 54 47 66 8
12 26 37 40 56 14 18 43 58 65 88 22 30 43 55 48 56 4 0 7 5 7 10 0 10 46 70
128 167 15 17 38 44 51 60 107 129 376 406 480 496 24 20 42 37 40 38 -2 0
-20 3 -39 6 -19 2 -62 11 -95 19 -33 8 -69 16 -80 18 -65 10 -355 136 -363
157 -2 5 -8 9 -13 9 -6 0 -31 16 -57 35 -110 81 -171 134 -237 207 -38 42 -73
77 -77 78 -5 0 -9 -8 -9 -17z"/>
<path d="M15137 6554 c-1 -1 -45 -4 -97 -7 -52 -4 -108 -9 -125 -12 -59 -12
-185 -45 -212 -57 -16 -6 -34 -12 -41 -14 -8 -1 -55 -23 -106 -48 -182 -89
-338 -219 -467 -388 -61 -80 -161 -253 -151 -262 3 -4 0 -6 -6 -6 -7 0 -11 -3
-10 -7 1 -5 -4 -21 -10 -36 -7 -16 -12 -34 -12 -41 0 -7 -3 -16 -7 -20 -4 -3
-8 -12 -9 -19 -2 -7 -10 -37 -18 -67 -30 -110 -38 -181 -39 -320 -1 -103 3
-156 18 -255 7 -48 53 -201 80 -264 46 -109 116 -227 188 -316 47 -57 207
-215 218 -215 4 0 14 -7 23 -15 41 -42 256 -159 299 -163 4 -1 20 -8 35 -16
50 -26 203 -64 283 -70 19 -1 39 -5 45 -7 11 -6 198 -3 274 4 140 14 308 65
443 136 97 51 109 58 136 78 127 93 171 131 236 204 71 80 135 163 135 175 0
4 6 15 14 23 20 23 103 190 112 226 4 17 10 35 14 40 7 11 29 84 36 119 2 12
6 32 9 46 15 70 18 107 20 250 2 161 -15 281 -61 420 -10 30 -18 57 -19 60 0
3 -9 20 -18 37 -10 18 -16 34 -15 35 4 5 -85 163 -93 166 -5 2 -9 8 -9 14 0
16 -91 129 -165 204 -66 67 -193 166 -266 208 -135 78 -347 152 -459 162 -19
1 -35 3 -35 4 0 3 -165 16 -168 14z m113 -468 c128 -15 295 -82 393 -157 186
-144 306 -344 342 -572 7 -43 7 -185 0 -237 -15 -121 -84 -288 -159 -388 -48
-65 -166 -182 -184 -182 -5 0 -17 -9 -27 -20 -10 -11 -22 -20 -27 -20 -5 0
-26 -11 -48 -25 -47 -30 -206 -85 -264 -92 -143 -17 -292 -4 -423 36 -2 1 -5
1 -8 1 -7 1 -168 83 -180 92 -90 69 -157 133 -217 207 -29 35 -100 171 -118
226 -38 115 -45 157 -44 300 1 91 6 139 23 199 20 73 85 224 101 236 4 3 13
16 20 29 29 55 138 166 216 219 117 80 265 138 382 148 37 3 68 7 70 9 3 3
100 -3 152 -9z"/>
<path d="M15057 5964 c-1 -1 -22 -5 -47 -9 -88 -12 -245 -79 -296 -126 -11
-10 -24 -19 -28 -19 -10 0 -107 -99 -131 -134 -56 -80 -55 -79 -95 -171 -51
-118 -63 -307 -29 -445 19 -72 71 -191 97 -218 6 -7 12 -17 12 -22 0 -18 146
-157 200 -191 79 -49 157 -85 209 -94 14 -3 37 -8 51 -12 14 -3 79 -7 145 -7
105 0 132 4 210 29 245 78 433 282 492 535 22 98 22 229 -1 325 -12 47 -29 98
-41 122 -8 15 -15 34 -15 41 0 6 -4 12 -10 12 -5 0 -10 5 -10 11 0 22 -65 106
-131 171 -101 98 -248 174 -374 193 -45 7 -203 13 -208 9z"/>
<path d="M1229 6545 c-2 -2 -29 -6 -59 -9 -30 -4 -91 -16 -135 -28 -44 -12
-83 -21 -87 -20 -5 1 -8 -3 -8 -10 0 -6 -3 -9 -6 -6 -13 14 -288 -120 -314
-152 -3 -4 -25 -20 -50 -37 -78 -53 -225 -206 -279 -288 -14 -22 -28 -42 -31
-45 -7 -6 -64 -102 -66 -110 0 -3 -15 -36 -32 -74 -18 -37 -35 -80 -38 -95 -4
-14 -9 -30 -13 -36 -3 -5 -7 -14 -8 -20 -6 -24 -24 -102 -28 -120 -2 -11 -7
-38 -12 -60 -10 -49 -10 -332 0 -399 4 -26 12 -67 18 -90 6 -22 12 -48 14 -56
6 -29 53 -156 80 -215 71 -156 233 -363 355 -454 19 -14 40 -30 46 -36 28 -25
143 -97 189 -119 55 -26 177 -77 195 -81 8 -2 40 -11 70 -19 113 -30 188 -39
335 -39 111 0 178 5 231 17 12 2 38 7 59 10 20 3 45 11 56 16 10 6 19 8 19 5
0 -4 29 5 105 35 92 35 284 142 293 163 2 4 10 7 18 7 8 0 14 5 14 10 0 6 8
14 18 17 20 8 202 186 202 198 0 4 8 15 18 24 44 40 181 281 189 334 2 11 7
25 12 31 8 10 27 72 36 116 2 8 4 15 5 15 4 0 19 86 27 155 16 132 3 375 -24
450 -3 8 -7 28 -9 43 -13 100 -158 387 -241 477 -13 14 -23 28 -23 31 0 9
-146 151 -185 181 -16 12 -32 25 -35 28 -3 3 -35 25 -73 49 -95 61 -206 113
-317 149 -88 28 -111 34 -195 48 -36 6 -331 14 -336 9z m221 -459 c36 -3 83
-10 105 -16 22 -6 45 -12 52 -13 7 -2 16 -6 19 -10 4 -4 16 -7 26 -7 17 0 153
-65 168 -80 3 -3 24 -18 46 -33 72 -49 204 -187 204 -214 0 -7 4 -13 8 -13 10
0 90 -155 95 -185 2 -11 7 -28 12 -37 4 -10 8 -29 9 -43 0 -14 4 -25 7 -25 8
0 8 -5 13 -152 2 -71 1 -128 -2 -128 -4 0 -7 -15 -8 -32 -2 -70 -48 -199 -109
-302 -36 -62 -161 -201 -225 -250 -40 -31 -183 -105 -236 -121 -137 -43 -326
-54 -449 -26 -167 39 -320 123 -436 241 -46 47 -137 177 -160 230 -23 53 -57
150 -52 150 3 0 0 6 -6 13 -6 8 -9 16 -6 18 2 3 0 22 -6 44 -10 45 -13 200 -4
260 20 133 71 262 147 373 42 62 175 192 221 217 21 11 37 23 37 27 0 5 7 8
16 8 9 0 29 9 45 21 16 11 35 22 42 23 7 2 21 6 32 10 89 34 141 46 225 53 41
3 77 7 78 9 2 1 9 1 15 -1 7 -2 41 -6 77 -9z"/>
<path d="M1265 5958 c-211 -34 -389 -145 -505 -312 -27 -40 -77 -141 -81 -164
-1 -4 -6 -18 -11 -32 -28 -72 -39 -216 -25 -325 22 -166 122 -338 268 -460 37
-30 147 -95 162 -95 7 0 17 -4 23 -9 5 -5 44 -18 87 -29 92 -24 297 -24 357
-2 3 1 10 3 15 4 43 7 192 77 223 106 12 11 22 18 22 14 0 -17 127 119 166
177 47 73 91 165 98 207 2 15 5 27 6 27 8 0 14 81 13 180 0 103 -3 139 -13
165 -1 3 -3 10 -4 15 -5 30 -30 96 -53 135 -8 14 -17 33 -20 43 -3 9 -9 17
-14 17 -5 0 -9 6 -9 14 0 21 -152 186 -172 186 -4 0 -13 6 -20 14 -19 19 -139
80 -180 91 -5 2 -10 4 -13 5 -3 1 -8 3 -12 4 -5 1 -17 5 -28 8 -62 20 -204 28
-280 16z"/>
<path d="M8115 6542 c-2 -3 -21 -6 -42 -7 -56 -4 -100 -13 -178 -37 -38 -12
-73 -22 -77 -22 -3 -1 -10 -4 -14 -8 -4 -5 -13 -8 -21 -8 -22 0 -163 -70 -238
-119 -148 -95 -273 -216 -371 -357 -52 -74 -106 -173 -134 -244 -40 -100 -36
-89 -65 -197 -6 -23 -12 -50 -21 -98 -14 -81 -21 -255 -10 -273 3 -6 2 -13 -4
-17 -6 -4 -8 -11 -4 -16 3 -5 8 -26 10 -47 11 -84 13 -99 19 -127 4 -17 19
-68 33 -115 14 -47 26 -87 27 -90 2 -16 124 -249 135 -260 3 -3 25 -32 50 -64
86 -114 208 -227 325 -302 140 -90 340 -171 468 -190 18 -2 52 -8 77 -11 74
-12 395 -6 395 7 0 1 11 3 25 5 38 5 138 32 205 56 74 25 236 109 252 129 7 8
13 11 13 7 1 -28 310 254 310 283 0 4 4 10 8 12 11 4 81 108 120 178 69 123
131 317 148 460 10 87 11 243 2 263 -5 10 -5 17 1 17 6 0 6 12 1 31 -5 17 -9
34 -8 38 0 3 -1 8 -2 11 -1 3 -3 16 -4 30 -15 133 -131 422 -200 499 -9 10
-16 21 -16 25 0 10 -69 95 -130 159 -99 106 -262 222 -395 283 -33 14 -68 31
-77 35 -10 5 -26 9 -36 9 -10 0 -22 4 -27 9 -10 9 -147 44 -220 57 -48 8 -323
13 -330 6z m342 -478 c161 -41 304 -125 419 -246 49 -52 114 -139 114 -154 0
-4 7 -15 16 -25 8 -9 17 -23 18 -31 1 -7 10 -27 19 -45 9 -18 17 -39 17 -48 0
-9 5 -26 12 -38 6 -12 13 -31 14 -42 1 -11 7 -47 12 -80 20 -118 -3 -331 -47
-430 -23 -54 -66 -135 -71 -135 -3 0 -11 -12 -17 -27 -14 -31 -73 -103 -118
-144 -73 -66 -101 -89 -117 -95 -10 -3 -18 -10 -18 -15 0 -5 -9 -9 -20 -9 -11
0 -20 -4 -20 -8 0 -10 -65 -42 -85 -42 -7 0 -15 -4 -17 -8 -4 -12 -162 -51
-234 -58 -292 -29 -562 87 -759 327 -45 54 -125 203 -125 232 0 7 -4 17 -9 22
-19 20 -51 227 -37 237 8 5 7 8 -1 8 -7 0 -10 14 -7 43 2 23 6 62 8 87 12 160
106 357 232 486 128 132 309 229 464 250 25 3 47 8 50 11 14 13 224 -2 307
-23z"/>
<path d="M8197 5963 c-1 0 -20 -4 -42 -7 -81 -13 -96 -17 -150 -37 -30 -11
-58 -20 -61 -19 -4 1 -10 -2 -13 -7 -3 -5 -31 -24 -62 -41 -99 -56 -199 -164
-265 -287 -31 -57 -66 -163 -59 -175 3 -5 2 -10 -2 -10 -19 0 -23 -185 -6
-274 41 -223 174 -406 373 -514 35 -19 140 -61 140 -57 0 3 11 0 25 -5 56 -21
196 -29 285 -16 118 17 255 79 352 158 64 52 149 154 178 213 8 17 19 33 25
37 5 4 6 8 1 8 -5 0 -4 6 2 13 19 23 54 160 55 219 1 32 6 58 10 58 5 0 5 5 1
11 -3 6 -8 39 -9 74 -9 157 -97 340 -221 455 -142 132 -309 200 -507 204 -27
1 -49 0 -50 -1z"/>
<path d="M9570 5789 c0 -5 4 -17 9 -27 8 -15 22 -47 26 -62 0 -3 9 -32 20 -65
24 -80 21 -66 40 -155 18 -84 24 -266 12 -395 -7 -74 -49 -253 -76 -326 -25
-66 -26 -73 -3 -64 9 4 22 8 27 9 6 1 15 4 20 7 12 7 151 50 162 51 5 0 16 4
26 10 10 5 26 11 35 13 9 2 80 20 156 39 77 20 152 38 166 41 15 3 62 12 106
20 43 9 88 17 99 19 11 2 35 6 54 11 19 4 50 9 70 10 20 2 36 4 36 5 0 2 10 3
95 14 25 3 59 8 75 11 17 3 57 7 90 10 33 3 71 8 85 11 14 2 63 7 110 10 47 3
105 7 130 9 209 17 650 22 880 11 202 -10 299 -16 341 -21 24 -3 64 -8 89 -10
94 -9 146 -14 190 -21 25 -3 59 -8 75 -10 34 -4 82 -11 135 -21 19 -3 46 -7
60 -9 14 -2 41 -6 60 -10 19 -4 42 -9 50 -10 8 -1 26 -4 40 -7 78 -17 128 -28
155 -33 34 -7 253 -63 273 -69 7 -3 14 -5 17 -5 3 0 23 -7 45 -15 22 -8 40
-12 40 -9 0 2 19 -5 43 -17 23 -12 42 -21 42 -19 0 4 42 -8 70 -19 86 -35 85
-35 60 13 -8 15 -17 38 -19 50 -3 11 -14 50 -26 86 -28 85 -49 190 -55 275 -1
24 -5 48 -9 53 -3 6 -2 13 4 17 7 4 7 12 0 24 -5 10 -7 21 -4 24 4 3 8 43 10
89 2 46 6 94 9 108 3 14 8 39 11 55 11 65 65 239 85 277 9 17 -5 36 -15 20 -3
-5 -27 -15 -53 -22 -27 -7 -57 -18 -68 -23 -11 -6 -27 -12 -35 -12 -8 -1 -55
-14 -105 -29 -115 -35 -238 -68 -300 -81 -11 -2 -63 -13 -115 -23 -52 -11
-111 -23 -130 -26 -19 -3 -73 -12 -118 -20 -46 -9 -87 -15 -90 -15 -4 1 -9 0
-12 -1 -3 -1 -18 -3 -35 -4 -16 -2 -48 -6 -70 -10 -22 -3 -67 -9 -100 -12 -33
-3 -73 -8 -90 -9 -16 -2 -64 -6 -105 -10 -41 -3 -93 -8 -116 -10 -143 -15
-794 -27 -794 -15 0 3 -44 5 -98 6 -96 1 -275 11 -342 19 -19 3 -64 7 -100 11
-36 3 -77 7 -91 9 -15 1 -31 5 -37 9 -6 3 -14 2 -17 -4 -5 -8 -11 -8 -19 -1
-7 6 -22 9 -34 6 -12 -2 -22 0 -22 4 0 4 -10 7 -22 6 -13 -1 -27 0 -33 3 -5 3
-25 7 -45 8 -30 2 -92 12 -180 29 -14 3 -50 9 -80 15 -123 23 -125 23 -250 55
-58 14 -114 28 -125 31 -11 2 -50 13 -87 25 -37 11 -69 20 -70 20 -2 0 -48 15
-103 35 -121 42 -135 46 -135 33z"/>
</g>
</svg>
