<svg xmlns="http://www.w3.org/2000/svg" xmlns:xlink="http://www.w3.org/1999/xlink" xmlns:lucid="lucid" width="896" height="404"><g transform="translate(-306 -187)" lucid:page-tab-id="0_0"><path d="M964.47 204.86a6 6 0 0 1 6-6h213.16a6 6 0 0 1 6 6v368.62a6 6 0 0 1-6 6H970.47a6 6 0 0 1-6-6z" stroke="#aaa" fill-opacity="0"/><use xlink:href="#a" transform="matrix(1,0,0,1,976.4722787333053,210.85774658635916) translate(22.759259259259267 351.66017137777783)"/><use xlink:href="#b" transform="matrix(1,0,0,1,976.4722787333053,210.85774658635916) translate(97.94444444444446 351.66017137777783)"/><path d="M1035.87 217.7h81.23c6.3 0 6.3 0 6.3 6.93v45.25c0 6.94 0 6.94-6.3 6.94h-81.23c-6.3 0-6.3 0-6.3-6.94v-45.25c0-6.93 0-6.93 6.3-6.93z" fill="#aaa"/><path d="M1035.87 223.48h81.74v45.82h-81.73v-45.82z" fill="#fff"/><path d="M1036.9 225.2h79.68v42.37h-79.68V225.2z" fill="gray"/><path d="M1025.44 290.44h103.1v9.83h-103.1v-9.83z" fill="#aaa"/><path d="M1053.62 278.96h71.32l3.6 11.65h-71.3l-3.62-11.64z" fill="#aaa"/><path d="M1099.45 278.96h-70.4l-3.6 11.56h70.38l3.62-11.56z" fill="#aaa"/><path d="M1059.1 281.2h61.7l2.5 7.75h-61.73l-2.48-7.76z" fill="#fff"/><path d="M1084.48 281.2h-51.8l-2.08 7.75h51.82l2.06-7.76z" fill="#fff"/><use xlink:href="#c" transform="matrix(1,0,0,1,995.4440215389122,300.2673703028522) translate(58.79012345679013 22.88888888888889)"/><path d="M375.38 217.7H485.5v65H375.4v-65z" fill="#aaa"/><path d="M421.75 282.2H441v11.35h-19.27V282.2z" fill="#aaa"/><path d="M379 220.1h102.32v58.76h-102.3V220.1z" fill="#fff"/><path d="M380.45 221.53h99v55.9h-99v-55.9z" fill="#999"/><path d="M421.75 282.7h19.38v.55h-19.38v-.56z" fill="#fff"/><path d="M431.22 288.52h.1c17.2 0 17.2 0 17.2 4.55s0 4.55-17.2 4.55h-.1c-17.18 0-17.18 0-17.18-4.55s0-4.55 17.18-4.55z" fill="#aaa"/><use xlink:href="#d" transform="matrix(1,0,0,1,345.3803747883925,297.5414295941924) translate(52.98148148148149 22.88888888888889)"/><path d="M389.26 412.03h81.23c6.3 0 6.3 0 6.3 6.94v45.25c0 6.93 0 6.93-6.3 6.93h-81.24c-6.3 0-6.3 0-6.3-6.93v-45.25c0-6.94 0-6.94 6.3-6.94z" fill="#aaa"/><path d="M389.26 417.8H471v45.84h-81.74V417.8z" fill="#fff"/><path d="M390.3 419.55h79.68v42.36H390.3v-42.35z" fill="gray"/><path d="M378.84 484.78h103.1v9.82h-103.1v-9.82z" fill="#aaa"/><path d="M407.02 473.3h71.32l3.6 11.64h-71.3L407 473.3z" fill="#aaa"/><path d="M452.84 473.3h-70.4l-3.6 11.56h70.4l3.6-11.56z" fill="#aaa"/><path d="M412.5 475.53h61.7l2.48 7.76h-61.72l-2.47-7.77z" fill="#fff"/><path d="M437.88 475.53h-51.82L384 483.3h51.8l2.08-7.77z" fill="#fff"/><use xlink:href="#e" transform="matrix(1,0,0,1,348.8389919748755,494.60412060822347) translate(59.358024691358025 22.88888888888889)"/><path d="M393.13 422.87h28.62v17.32h-28.62z" fill="none"/><use xlink:href="#f" transform="matrix(1,0,0,1,393.1288225736974,422.87391352600633) translate(3.095679012345684 11.222222222222221)"/><path d="M393.13 440.2h28.62v17.3h-28.62z" fill="none"/><use xlink:href="#g" transform="matrix(1,0,0,1,393.1288225736974,440.1923074917061) translate(2.8024691358024754 11.222222222222221)"/><path d="M317.97 204.86a6 6 0 0 1 6-6h213.16a6 6 0 0 1 6 6v171.7a6 6 0 0 1-6 6H323.97a6 6 0 0 1-6-6z" stroke="#aaa" fill-opacity="0"/><use xlink:href="#h" transform="matrix(1,0,0,1,329.969786634719,210.85774658635916) translate(22.759259259259267 154.6435697777778)"/><use xlink:href="#i" transform="matrix(1,0,0,1,329.969786634719,210.85774658635916) translate(97.94444444444446 154.6435697777778)"/><path d="M1042.05 366.2h70.07v120.13h-70.07V366.2z" fill="#aaa"/><path d="M1068.8 449.6h35.62c1.12 0 1.12 0 1.12 1.2 0 1.1 0 1.1-1.12 1.1h-35.63c-1.2 0-1.2 0-1.2-1.1 0-1.2 0-1.2 1.2-1.2zM1068.86 455.73h35.5c1.53 0 1.53 0 1.53 1.56v.35c0 1.56 0 1.56-1.55 1.56h-35.5c-1.6 0-1.6 0-1.6-1.55v-.36c0-1.57 0-1.57 1.6-1.57zM1069 463.3h35.56c1.54 0 1.54 0 1.54 1.55v.36c0 1.57 0 1.57-1.54 1.57H1069c-1.54 0-1.54 0-1.54-1.56v-.35c0-1.56 0-1.56 1.54-1.56zM1101.4 424.53c0 3.12-2.5 5.64-5.73 5.64-3.22 0-5.8-2.52-5.8-5.64 0-3.12 2.58-5.64 5.8-5.64 3.22 0 5.74 2.5 5.74 5.63z" fill="#fff"/><path d="M1099.1 424.53c0 1.92-1.54 3.48-3.5 3.48s-3.57-1.55-3.57-3.47c0-1.92 1.6-3.48 3.57-3.48 1.96 0 3.5 1.56 3.5 3.48z" fill="#bbb"/><use xlink:href="#c" transform="matrix(1,0,0,1,1012.0502590659805,486.2058888034462) translate(41.79012345679013 22.88888888888889)"/><path d="M1045.4 489.5V387.76h16.65V489.5z" fill="none"/><use xlink:href="#j" transform="matrix(6.123233995736766e-17,-1,1,6.123233995736766e-17,1045.4032668521209,489.4924785629421) translate(8.45370370370373 10.722222222222221)"/><path d="M1045.4 370.45h28.63v17.32h-28.63z" fill="none"/><use xlink:href="#k" transform="matrix(1,0,0,1,1045.4032668521206,370.45408760067784) translate(3.095679012345684 11.222222222222221)"/><path d="M1039.4 228.76h28.64v17.32h-28.63z" fill="none"/><use xlink:href="#g" transform="matrix(1,0,0,1,1039.414949427005,228.76001741614502) translate(2.8024691358024754 11.222222222222221)"/><path d="M702.53 300.97h102.64v175.95H702.53V300.97z" fill="#aaa"/><path d="M741.7 423.13h52.2c1.63 0 1.63 0 1.63 1.76 0 1.57 0 1.57-1.64 1.57h-52.2c-1.74 0-1.74 0-1.74-1.58 0-1.77 0-1.77 1.74-1.77zM741.8 432.1h52c2.24 0 2.24 0 2.24 2.28v.53c0 2.3 0 2.3-2.25 2.3h-52c-2.36 0-2.36 0-2.36-2.3v-.52c0-2.28 0-2.28 2.36-2.28zM742 443.17h52.1c2.25 0 2.25 0 2.25 2.3v.5c0 2.3 0 2.3-2.25 2.3H742c-2.25 0-2.25 0-2.25-2.3v-.5c0-2.3 0-2.3 2.26-2.3zM789.48 386.4c0 4.57-3.7 8.26-8.4 8.26-4.72 0-8.52-3.7-8.52-8.27 0-4.57 3.8-8.27 8.5-8.27 4.73 0 8.42 3.7 8.42 8.26z" fill="#fff"/><path d="M786.1 386.4c0 2.8-2.26 5.1-5.13 5.1s-5.23-2.3-5.23-5.1c0-2.82 2.36-5.1 5.23-5.1 2.87 0 5.13 2.28 5.13 5.1z" fill="#bbb"/><use xlink:href="#l" transform="matrix(1,0,0,1,672.5303842494127,476.74539632572595) translate(46.462962962962976 22.88888888888889)"/><path d="M1013.2 259.76l-4.65.5-6.04.88-5.7 1.1-5.43 1.27-5.22 1.46-5.06 1.65-4.95 1.84-4.9 2.06-4.87 2.3-4.96 2.6-5.12 2.95-5.42 3.44-5.96 4.14-7.06 5.37-10.3 8.57-30.68 26.5-7.06 5.36-5.96 4.15-5.42 3.44-5.12 2.96-4.96 2.6-4.88 2.3-4.9 2.05-4.93 1.83-5.05 1.65-5.22 1.46-5.44 1.28-5.7 1.08-6.05.9-4.67.5" stroke="#6db1ff" stroke-linejoin="round" fill="none"/><path d="M1027.95 259.06l-14.03 5.3-.44-9.25zM806.8 358.6l14-5.3.46 9.26z" stroke="#6db1ff" fill="#6db1ff"/><path d="M686.15 389.28l-10.16.63-10.72 1.13-9.62 1.42-8.85 1.7-8.36 1.95-8.2 2.3-8.4 2.72-9.44 3.52-14.1 5.96-31.38 13.78-9.43 3.52-8.42 2.73-8.2 2.3-8.37 1.95-8.84 1.7-9.62 1.4-10.7 1.13-10.17.64" stroke="#6db1ff" stroke-linejoin="round" fill="none"/><path d="M700.9 388.9l-14.13 5-.24-9.27zM478.4 440.12l14.15-5 .24 9.27z" stroke="#6db1ff" fill="#6db1ff"/><path d="M1025.67 409.5l-5.3-.1-17.36-1.07-14.63-1.53-13.04-1.93-12.4-2.36-13.17-3.1-23-6.53-29.3-8.44-13.17-3.1-12.4-2.37-13.04-1.92-14.65-1.53-17.35-1.07-5.3-.1" stroke="#fcce14" stroke-linejoin="round" fill="none"/><path d="M1040.43 409.8l-14.36 4.36.2-9.27zM806.8 374.03l14.34-4.35-.18 9.27z" stroke="#fcce14" fill="#fcce14"/><path d="M416.13 226.03h28.63v17.32h-28.63z" fill="none"/><use xlink:href="#m" transform="matrix(1,0,0,1,416.133015872592,226.03407670748513) translate(-30.824074074074048 11.222222222222221)"/><path d="M1025.67 426.53l-12.9.26-21.94 1.35-18.25 1.9-17.37 2.58-26.33 5.13-36.86 7.38-17.36 2.57-18.25 1.92-21.96 1.36-12.9.25" stroke="#54c45e" stroke-linejoin="round" fill="none"/><path d="M1040.43 426.24l-14.17 4.9-.2-9.25zM806.8 451.53l14.16-4.92.18 9.28z" stroke="#54c45e" fill="#54c45e"/><path d="M686.15 454.94l-17.66.37-38.7 2.5-101.46 8.47-29.6.62-5.65-.1" stroke="#54c45e" stroke-linejoin="round" fill="none"/><path d="M700.9 454.63l-14.16 4.93-.2-9.27zM478.33 466.58l14.33-4.4-.14 9.25z" stroke="#54c45e" fill="#54c45e"/><path d="M686.18 366.75l-1.72-.18-5.3-.78-5.02-.97-4.8-1.13-4.65-1.3-4.5-1.45-4.42-1.64-4.34-1.82-4.33-2.03-4.34-2.28-4.43-2.56-4.58-2.9-4.83-3.35-5.24-3.98-5.96-4.94-7.54-6.8-39.86-38.76-5.96-4.95-5.24-3.98-4.83-3.36-4.6-2.9-4.42-2.56-4.35-2.28-4.33-2.03-4.34-1.82-4.4-1.64-4.5-1.46-4.64-1.3-4.82-1.12-5.02-.96-5.3-.78-1.72-.18" stroke="#fcce14" stroke-linejoin="round" fill="none"/><path d="M700.9 367.58l-14.5 3.83.53-9.25zM487.13 257.7l14.5-3.82-.52 9.26z" stroke="#fcce14" fill="#fcce14"/><path d="M317.87 401.45a6 6 0 0 1 6-6h213.15a6 6 0 0 1 6 6v171.72a6 6 0 0 1-6 6H323.87a6 6 0 0 1-6-6z" stroke="#aaa" fill-opacity="0"/><g><use xlink:href="#h" transform="matrix(1,0,0,1,329.8672491692685,407.45346867992106) translate(22.759259259259267 154.6435697777778)"/><use xlink:href="#i" transform="matrix(1,0,0,1,329.8672491692685,407.45346867992106) translate(97.94444444444446 154.6435697777778)"/></g><defs><path fill="#aaa" d="M30-248c87 1 191-15 191 75 0 78-77 80-158 76V0H30v-248zm33 125c57 0 124 11 124-50 0-59-68-47-124-48v98" id="n"/><path fill="#aaa" d="M114-163C36-179 61-72 57 0H25l-1-190h30c1 12-1 29 2 39 6-27 23-49 58-41v29" id="o"/><path fill="#aaa" d="M24-231v-30h32v30H24zM24 0v-190h32V0H24" id="p"/><path fill="#aaa" d="M108 0H70L1-190h34L89-25l56-165h34" id="q"/><path fill="#aaa" d="M141-36C126-15 110 5 73 4 37 3 15-17 15-53c-1-64 63-63 125-63 3-35-9-54-41-54-24 1-41 7-42 31l-33-3c5-37 33-52 76-52 45 0 72 20 72 64v82c-1 20 7 32 28 27v20c-31 9-61-2-59-35zM48-53c0 20 12 33 32 33 41-3 63-29 60-74-43 2-92-5-92 41" id="r"/><path fill="#aaa" d="M59-47c-2 24 18 29 38 22v24C64 9 27 4 27-40v-127H5v-23h24l9-43h21v43h35v23H59v120" id="s"/><path fill="#aaa" d="M100-194c63 0 86 42 84 106H49c0 40 14 67 53 68 26 1 43-12 49-29l28 8c-11 28-37 45-77 45C44 4 14-33 15-96c1-61 26-98 85-98zm52 81c6-60-76-77-97-28-3 7-6 17-6 28h103" id="t"/><g id="a"><use transform="matrix(0.06172839506172839,0,0,0.06172839506172839,0,0)" xlink:href="#n"/><use transform="matrix(0.06172839506172839,0,0,0.06172839506172839,14.814814814814813,0)" xlink:href="#o"/><use transform="matrix(0.06172839506172839,0,0,0.06172839506172839,22.160493827160494,0)" xlink:href="#p"/><use transform="matrix(0.06172839506172839,0,0,0.06172839506172839,27.037037037037038,0)" xlink:href="#q"/><use transform="matrix(0.06172839506172839,0,0,0.06172839506172839,38.14814814814815,0)" xlink:href="#r"/><use transform="matrix(0.06172839506172839,0,0,0.06172839506172839,50.49382716049383,0)" xlink:href="#s"/><use transform="matrix(0.06172839506172839,0,0,0.06172839506172839,56.66666666666667,0)" xlink:href="#t"/></g><path fill="#aaa" d="M190 0L58-211 59 0H30v-248h39L202-35l-2-213h31V0h-41" id="u"/><path fill="#aaa" d="M206 0h-36l-40-164L89 0H53L-1-190h32L70-26l43-164h34l41 164 42-164h31" id="v"/><path fill="#aaa" d="M100-194c62-1 85 37 85 99 1 63-27 99-86 99S16-35 15-95c0-66 28-99 85-99zM99-20c44 1 53-31 53-75 0-43-8-75-51-75s-53 32-53 75 10 74 51 75" id="w"/><path fill="#aaa" d="M143 0L79-87 56-68V0H24v-261h32v163l83-92h37l-77 82L181 0h-38" id="x"/><g id="b"><use transform="matrix(0.06172839506172839,0,0,0.06172839506172839,0,0)" xlink:href="#u"/><use transform="matrix(0.06172839506172839,0,0,0.06172839506172839,15.987654320987653,0)" xlink:href="#t"/><use transform="matrix(0.06172839506172839,0,0,0.06172839506172839,28.333333333333332,0)" xlink:href="#s"/><use transform="matrix(0.06172839506172839,0,0,0.06172839506172839,34.50617283950617,0)" xlink:href="#v"/><use transform="matrix(0.06172839506172839,0,0,0.06172839506172839,50.49382716049382,0)" xlink:href="#w"/><use transform="matrix(0.06172839506172839,0,0,0.06172839506172839,62.8395061728395,0)" xlink:href="#o"/><use transform="matrix(0.06172839506172839,0,0,0.06172839506172839,70.18518518518518,0)" xlink:href="#x"/></g><path fill="#aaa" d="M205 0l-28-72H64L36 0H1l101-248h38L239 0h-34zm-38-99l-47-123c-12 45-31 82-46 123h93" id="y"/><path fill="#aaa" d="M177-190C167-65 218 103 67 71c-23-6-38-20-44-43l32-5c15 47 100 32 89-28v-30C133-14 115 1 83 1 29 1 15-40 15-95c0-56 16-97 71-98 29-1 48 16 59 35 1-10 0-23 2-32h30zM94-22c36 0 50-32 50-73 0-42-14-75-50-75-39 0-46 34-46 75s6 73 46 73" id="z"/><path fill="#aaa" d="M117-194c89-4 53 116 60 194h-32v-121c0-31-8-49-39-48C34-167 62-67 57 0H25l-1-190h30c1 10-1 24 2 32 11-22 29-35 61-36" id="A"/><g id="c"><use transform="matrix(0.049382716049382706,0,0,0.049382716049382706,0,0)" xlink:href="#y"/><use transform="matrix(0.049382716049382706,0,0,0.049382716049382706,11.85185185185185,0)" xlink:href="#z"/><use transform="matrix(0.049382716049382706,0,0,0.049382716049382706,21.728395061728392,0)" xlink:href="#t"/><use transform="matrix(0.049382716049382706,0,0,0.049382716049382706,31.604938271604933,0)" xlink:href="#A"/><use transform="matrix(0.049382716049382706,0,0,0.049382716049382706,41.481481481481474,0)" xlink:href="#s"/></g><path fill="#aaa" d="M160-131c35 5 61 23 61 61C221 17 115-2 30 0v-248c76 3 177-17 177 60 0 33-19 50-47 57zm-97-11c50-1 110 9 110-42 0-47-63-36-110-37v79zm0 115c55-2 124 14 124-45 0-56-70-42-124-44v89" id="B"/><path fill="#aaa" d="M135-143c-3-34-86-38-87 0 15 53 115 12 119 90S17 21 10-45l28-5c4 36 97 45 98 0-10-56-113-15-118-90-4-57 82-63 122-42 12 7 21 19 24 35" id="C"/><g id="d"><use transform="matrix(0.049382716049382706,0,0,0.049382716049382706,0,0)" xlink:href="#B"/><use transform="matrix(0.049382716049382706,0,0,0.049382716049382706,11.85185185185185,0)" xlink:href="#o"/><use transform="matrix(0.049382716049382706,0,0,0.049382716049382706,17.728395061728392,0)" xlink:href="#w"/><use transform="matrix(0.049382716049382706,0,0,0.049382716049382706,27.604938271604933,0)" xlink:href="#v"/><use transform="matrix(0.049382716049382706,0,0,0.049382716049382706,40.395061728395056,0)" xlink:href="#C"/><use transform="matrix(0.049382716049382706,0,0,0.049382716049382706,49.28395061728394,0)" xlink:href="#t"/><use transform="matrix(0.049382716049382706,0,0,0.049382716049382706,59.16049382716048,0)" xlink:href="#o"/></g><path fill="#aaa" d="M212-179c-10-28-35-45-73-45-59 0-87 40-87 99 0 60 29 101 89 101 43 0 62-24 78-52l27 14C228-24 195 4 139 4 59 4 22-46 18-125c-6-104 99-153 187-111 19 9 31 26 39 46" id="D"/><path fill="#aaa" d="M24 0v-261h32V0H24" id="E"/><g id="e"><use transform="matrix(0.049382716049382706,0,0,0.049382716049382706,0,0)" xlink:href="#D"/><use transform="matrix(0.049382716049382706,0,0,0.049382716049382706,12.790123456790122,0)" xlink:href="#E"/><use transform="matrix(0.049382716049382706,0,0,0.049382716049382706,16.691358024691354,0)" xlink:href="#p"/><use transform="matrix(0.049382716049382706,0,0,0.049382716049382706,20.592592592592588,0)" xlink:href="#t"/><use transform="matrix(0.049382716049382706,0,0,0.049382716049382706,30.46913580246913,0)" xlink:href="#A"/><use transform="matrix(0.049382716049382706,0,0,0.049382716049382706,40.34567901234567,0)" xlink:href="#s"/></g><path fill="#54c45e" d="M185-189c-5-48-123-54-124 2 14 75 158 14 163 119 3 78-121 87-175 55-17-10-28-26-33-46l33-7c5 56 141 63 141-1 0-78-155-14-162-118-5-82 145-84 179-34 5 7 8 16 11 25" id="F"/><path fill="#54c45e" d="M197 0v-115H63V0H30v-248h33v105h134v-105h34V0h-34" id="G"/><g id="f"><use transform="matrix(0.030864197530864182,0,0,0.030864197530864182,0,0)" xlink:href="#F"/><use transform="matrix(0.030864197530864182,0,0,0.030864197530864182,7.407407407407404,0)" xlink:href="#F"/><use transform="matrix(0.030864197530864182,0,0,0.030864197530864182,14.814814814814808,0)" xlink:href="#G"/></g><path fill="#6db1ff" d="M233-177c-1 41-23 64-60 70L243 0h-38l-65-103H63V0H30v-248c88 3 205-21 203 71zM63-129c60-2 137 13 137-47 0-61-80-42-137-45v92" id="H"/><path fill="#6db1ff" d="M30-248c118-7 216 8 213 122C240-48 200 0 122 0H30v-248zM63-27c89 8 146-16 146-99s-60-101-146-95v194" id="I"/><path fill="#6db1ff" d="M30-248c87 1 191-15 191 75 0 78-77 80-158 76V0H30v-248zm33 125c57 0 124 11 124-50 0-59-68-47-124-48v98" id="J"/><g id="g"><use transform="matrix(0.030864197530864182,0,0,0.030864197530864182,0,0)" xlink:href="#H"/><use transform="matrix(0.030864197530864182,0,0,0.030864197530864182,7.993827160493823,0)" xlink:href="#I"/><use transform="matrix(0.030864197530864182,0,0,0.030864197530864182,15.987654320987646,0)" xlink:href="#J"/></g><g id="h"><use transform="matrix(0.06172839506172839,0,0,0.06172839506172839,0,0)" xlink:href="#n"/><use transform="matrix(0.06172839506172839,0,0,0.06172839506172839,14.814814814814813,0)" xlink:href="#o"/><use transform="matrix(0.06172839506172839,0,0,0.06172839506172839,22.160493827160494,0)" xlink:href="#p"/><use transform="matrix(0.06172839506172839,0,0,0.06172839506172839,27.037037037037038,0)" xlink:href="#q"/><use transform="matrix(0.06172839506172839,0,0,0.06172839506172839,38.14814814814815,0)" xlink:href="#r"/><use transform="matrix(0.06172839506172839,0,0,0.06172839506172839,50.49382716049383,0)" xlink:href="#s"/><use transform="matrix(0.06172839506172839,0,0,0.06172839506172839,56.66666666666667,0)" xlink:href="#t"/></g><g id="i"><use transform="matrix(0.06172839506172839,0,0,0.06172839506172839,0,0)" xlink:href="#u"/><use transform="matrix(0.06172839506172839,0,0,0.06172839506172839,15.987654320987653,0)" xlink:href="#t"/><use transform="matrix(0.06172839506172839,0,0,0.06172839506172839,28.333333333333332,0)" xlink:href="#s"/><use transform="matrix(0.06172839506172839,0,0,0.06172839506172839,34.50617283950617,0)" xlink:href="#v"/><use transform="matrix(0.06172839506172839,0,0,0.06172839506172839,50.49382716049382,0)" xlink:href="#w"/><use transform="matrix(0.06172839506172839,0,0,0.06172839506172839,62.8395061728395,0)" xlink:href="#o"/><use transform="matrix(0.06172839506172839,0,0,0.06172839506172839,70.18518518518518,0)" xlink:href="#x"/></g><path fill="#fcce14" d="M106-169C34-169 62-67 57 0H25v-261h32l-1 103c12-21 28-36 61-36 89 0 53 116 60 194h-32v-121c2-32-8-49-39-48" id="K"/><path fill="#fcce14" d="M59-47c-2 24 18 29 38 22v24C64 9 27 4 27-40v-127H5v-23h24l9-43h21v43h35v23H59v120" id="L"/><path fill="#fcce14" d="M115-194c55 1 70 41 70 98S169 2 115 4C84 4 66-9 55-30l1 105H24l-1-265h31l2 30c10-21 28-34 59-34zm-8 174c40 0 45-34 45-75s-6-73-45-74c-42 0-51 32-51 76 0 43 10 73 51 73" id="M"/><path fill="#fcce14" d="M33-154v-36h34v36H33zM33 0v-36h34V0H33" id="N"/><path fill="#fcce14" d="M0 4l72-265h28L28 4H0" id="O"/><path fill="#fcce14" d="M117-194c89-4 53 116 60 194h-32v-121c0-31-8-49-39-48C34-167 62-67 57 0H25l-1-190h30c1 10-1 24 2 32 11-22 29-35 61-36" id="P"/><path fill="#fcce14" d="M141-36C126-15 110 5 73 4 37 3 15-17 15-53c-1-64 63-63 125-63 3-35-9-54-41-54-24 1-41 7-42 31l-33-3c5-37 33-52 76-52 45 0 72 20 72 64v82c-1 20 7 32 28 27v20c-31 9-61-2-59-35zM48-53c0 20 12 33 32 33 41-3 63-29 60-74-43 2-92-5-92 41" id="Q"/><path fill="#fcce14" d="M114-163C36-179 61-72 57 0H25l-1-190h30c1 12-1 29 2 39 6-27 23-49 58-41v29" id="R"/><path fill="#fcce14" d="M100-194c62-1 85 37 85 99 1 63-27 99-86 99S16-35 15-95c0-66 28-99 85-99zM99-20c44 1 53-31 53-75 0-43-8-75-51-75s-53 32-53 75 10 74 51 75" id="S"/><path fill="#fcce14" d="M206 0h-36l-40-164L89 0H53L-1-190h32L70-26l43-164h34l41 164 42-164h31" id="T"/><path fill="#fcce14" d="M33 0v-38h34V0H33" id="U"/><path fill="#fcce14" d="M135-143c-3-34-86-38-87 0 15 53 115 12 119 90S17 21 10-45l28-5c4 36 97 45 98 0-10-56-113-15-118-90-4-57 82-63 122-42 12 7 21 19 24 35" id="V"/><g id="j"><use transform="matrix(0.030864197530864182,0,0,0.030864197530864182,0,0)" xlink:href="#K"/><use transform="matrix(0.030864197530864182,0,0,0.030864197530864182,6.172839506172837,0)" xlink:href="#L"/><use transform="matrix(0.030864197530864182,0,0,0.030864197530864182,9.259259259259256,0)" xlink:href="#L"/><use transform="matrix(0.030864197530864182,0,0,0.030864197530864182,12.345679012345673,0)" xlink:href="#M"/><use transform="matrix(0.030864197530864182,0,0,0.030864197530864182,18.518518518518512,0)" xlink:href="#N"/><use transform="matrix(0.030864197530864182,0,0,0.030864197530864182,21.60493827160493,0)" xlink:href="#O"/><use transform="matrix(0.030864197530864182,0,0,0.030864197530864182,24.691358024691347,0)" xlink:href="#O"/><use transform="matrix(0.030864197530864182,0,0,0.030864197530864182,27.777777777777764,0)" xlink:href="#P"/><use transform="matrix(0.030864197530864182,0,0,0.030864197530864182,33.9506172839506,0)" xlink:href="#Q"/><use transform="matrix(0.030864197530864182,0,0,0.030864197530864182,40.123456790123434,0)" xlink:href="#R"/><use transform="matrix(0.030864197530864182,0,0,0.030864197530864182,43.79629629629627,0)" xlink:href="#R"/><use transform="matrix(0.030864197530864182,0,0,0.030864197530864182,47.469135802469104,0)" xlink:href="#S"/><use transform="matrix(0.030864197530864182,0,0,0.030864197530864182,53.64197530864194,0)" xlink:href="#T"/><use transform="matrix(0.030864197530864182,0,0,0.030864197530864182,61.018518518518476,0)" xlink:href="#U"/><use transform="matrix(0.030864197530864182,0,0,0.030864197530864182,64.1049382716049,0)" xlink:href="#K"/><use transform="matrix(0.030864197530864182,0,0,0.030864197530864182,70.27777777777773,0)" xlink:href="#S"/><use transform="matrix(0.030864197530864182,0,0,0.030864197530864182,76.45061728395056,0)" xlink:href="#V"/><use transform="matrix(0.030864197530864182,0,0,0.030864197530864182,82.00617283950612,0)" xlink:href="#L"/></g><path fill="#008a0e" d="M185-189c-5-48-123-54-124 2 14 75 158 14 163 119 3 78-121 87-175 55-17-10-28-26-33-46l33-7c5 56 141 63 141-1 0-78-155-14-162-118-5-82 145-84 179-34 5 7 8 16 11 25" id="W"/><path fill="#008a0e" d="M197 0v-115H63V0H30v-248h33v105h134v-105h34V0h-34" id="X"/><g id="k"><use transform="matrix(0.030864197530864182,0,0,0.030864197530864182,0,0)" xlink:href="#W"/><use transform="matrix(0.030864197530864182,0,0,0.030864197530864182,7.407407407407404,0)" xlink:href="#W"/><use transform="matrix(0.030864197530864182,0,0,0.030864197530864182,14.814814814814808,0)" xlink:href="#X"/></g><path fill="#aaa" d="M143 4C61 4 22-44 18-125c-5-107 100-154 193-111 17 8 29 25 37 43l-32 9c-13-25-37-40-76-40-61 0-88 39-88 99 0 61 29 100 91 101 35 0 62-11 79-27v-45h-74v-28h105v86C228-13 192 4 143 4" id="Y"/><path fill="#aaa" d="M179-190L93 31C79 59 56 82 12 73V49c39 6 53-20 64-50L1-190h34L92-34l54-156h33" id="Z"/><g id="l"><use transform="matrix(0.049382716049382706,0,0,0.049382716049382706,0,0)" xlink:href="#Y"/><use transform="matrix(0.049382716049382706,0,0,0.049382716049382706,13.827160493827158,0)" xlink:href="#r"/><use transform="matrix(0.049382716049382706,0,0,0.049382716049382706,23.7037037037037,0)" xlink:href="#s"/><use transform="matrix(0.049382716049382706,0,0,0.049382716049382706,28.64197530864197,0)" xlink:href="#t"/><use transform="matrix(0.049382716049382706,0,0,0.049382716049382706,38.518518518518505,0)" xlink:href="#v"/><use transform="matrix(0.049382716049382706,0,0,0.049382716049382706,51.30864197530862,0)" xlink:href="#r"/><use transform="matrix(0.049382716049382706,0,0,0.049382716049382706,61.18518518518516,0)" xlink:href="#Z"/></g><path fill="#ffe342" d="M106-169C34-169 62-67 57 0H25v-261h32l-1 103c12-21 28-36 61-36 89 0 53 116 60 194h-32v-121c2-32-8-49-39-48" id="aa"/><path fill="#ffe342" d="M59-47c-2 24 18 29 38 22v24C64 9 27 4 27-40v-127H5v-23h24l9-43h21v43h35v23H59v120" id="ab"/><path fill="#ffe342" d="M115-194c55 1 70 41 70 98S169 2 115 4C84 4 66-9 55-30l1 105H24l-1-265h31l2 30c10-21 28-34 59-34zm-8 174c40 0 45-34 45-75s-6-73-45-74c-42 0-51 32-51 76 0 43 10 73 51 73" id="ac"/><path fill="#ffe342" d="M135-143c-3-34-86-38-87 0 15 53 115 12 119 90S17 21 10-45l28-5c4 36 97 45 98 0-10-56-113-15-118-90-4-57 82-63 122-42 12 7 21 19 24 35" id="ad"/><path fill="#ffe342" d="M33-154v-36h34v36H33zM33 0v-36h34V0H33" id="ae"/><path fill="#ffe342" d="M0 4l72-265h28L28 4H0" id="af"/><path fill="#ffe342" d="M117-194c89-4 53 116 60 194h-32v-121c0-31-8-49-39-48C34-167 62-67 57 0H25l-1-190h30c1 10-1 24 2 32 11-22 29-35 61-36" id="ag"/><path fill="#ffe342" d="M141-36C126-15 110 5 73 4 37 3 15-17 15-53c-1-64 63-63 125-63 3-35-9-54-41-54-24 1-41 7-42 31l-33-3c5-37 33-52 76-52 45 0 72 20 72 64v82c-1 20 7 32 28 27v20c-31 9-61-2-59-35zM48-53c0 20 12 33 32 33 41-3 63-29 60-74-43 2-92-5-92 41" id="ah"/><path fill="#ffe342" d="M114-163C36-179 61-72 57 0H25l-1-190h30c1 12-1 29 2 39 6-27 23-49 58-41v29" id="ai"/><path fill="#ffe342" d="M100-194c62-1 85 37 85 99 1 63-27 99-86 99S16-35 15-95c0-66 28-99 85-99zM99-20c44 1 53-31 53-75 0-43-8-75-51-75s-53 32-53 75 10 74 51 75" id="aj"/><path fill="#ffe342" d="M206 0h-36l-40-164L89 0H53L-1-190h32L70-26l43-164h34l41 164 42-164h31" id="ak"/><path fill="#ffe342" d="M33 0v-38h34V0H33" id="al"/><g id="m"><use transform="matrix(0.030864197530864182,0,0,0.030864197530864182,0,0)" xlink:href="#aa"/><use transform="matrix(0.030864197530864182,0,0,0.030864197530864182,6.172839506172837,0)" xlink:href="#ab"/><use transform="matrix(0.030864197530864182,0,0,0.030864197530864182,9.259259259259256,0)" xlink:href="#ab"/><use transform="matrix(0.030864197530864182,0,0,0.030864197530864182,12.345679012345673,0)" xlink:href="#ac"/><use transform="matrix(0.030864197530864182,0,0,0.030864197530864182,18.518518518518512,0)" xlink:href="#ad"/><use transform="matrix(0.030864197530864182,0,0,0.030864197530864182,24.074074074074066,0)" xlink:href="#ae"/><use transform="matrix(0.030864197530864182,0,0,0.030864197530864182,27.160493827160483,0)" xlink:href="#af"/><use transform="matrix(0.030864197530864182,0,0,0.030864197530864182,30.2469135802469,0)" xlink:href="#af"/><use transform="matrix(0.030864197530864182,0,0,0.030864197530864182,33.33333333333332,0)" xlink:href="#ag"/><use transform="matrix(0.030864197530864182,0,0,0.030864197530864182,39.506172839506156,0)" xlink:href="#ah"/><use transform="matrix(0.030864197530864182,0,0,0.030864197530864182,45.67901234567899,0)" xlink:href="#ai"/><use transform="matrix(0.030864197530864182,0,0,0.030864197530864182,49.351851851851826,0)" xlink:href="#ai"/><use transform="matrix(0.030864197530864182,0,0,0.030864197530864182,53.02469135802466,0)" xlink:href="#aj"/><use transform="matrix(0.030864197530864182,0,0,0.030864197530864182,59.197530864197496,0)" xlink:href="#ak"/><use transform="matrix(0.030864197530864182,0,0,0.030864197530864182,66.57407407407403,0)" xlink:href="#al"/><use transform="matrix(0.030864197530864182,0,0,0.030864197530864182,69.66049382716045,0)" xlink:href="#aa"/><use transform="matrix(0.030864197530864182,0,0,0.030864197530864182,75.83333333333329,0)" xlink:href="#aj"/><use transform="matrix(0.030864197530864182,0,0,0.030864197530864182,82.00617283950612,0)" xlink:href="#ad"/><use transform="matrix(0.030864197530864182,0,0,0.030864197530864182,87.56172839506168,0)" xlink:href="#ab"/></g></defs></g></svg>