<svg xmlns="http://www.w3.org/2000/svg" xmlns:xlink="http://www.w3.org/1999/xlink" xmlns:lucid="lucid" width="828" height="404"><g transform="translate(-391 -187)" lucid:page-tab-id="0_0"><path d="M401.67 204.23a6 6 0 0 1 6-6h177.3a6 6 0 0 1 6 6v171.72a6 6 0 0 1-6 6h-177.3a6 6 0 0 1-6-6z" stroke="#aaa" fill-opacity="0"/><use xlink:href="#a" transform="matrix(1,0,0,1,413.67170520581556,210.23104763017687) translate(4.759259259259267 154.6435697777778)"/><use xlink:href="#b" transform="matrix(1,0,0,1,413.67170520581556,210.23104763017687) translate(79.94444444444446 154.6435697777778)"/><path d="M401.58 400.83a6 6 0 0 1 6-6h177.3a6 6 0 0 1 6 6v171.7a6 6 0 0 1-6 6h-177.3a6 6 0 0 1-6-6z" stroke="#aaa" fill-opacity="0"/><use xlink:href="#a" transform="matrix(1,0,0,1,413.58549994279815,406.8267697237388) translate(4.759259259259267 154.6435697777778)"/><use xlink:href="#b" transform="matrix(1,0,0,1,413.58549994279815,406.8267697237388) translate(79.94444444444446 154.6435697777778)"/><path d="M915.68 204.23a6 6 0 0 1 6-6h278.5a6 6 0 0 1 6 6v368.63a6 6 0 0 1-6 6h-278.5a6 6 0 0 1-6-6z" stroke="#aaa" fill-opacity="0"/><use xlink:href="#a" transform="matrix(1,0,0,1,927.6832031594706,210.23104763017687) translate(55.25925925925927 351.66017137777783)"/><use xlink:href="#b" transform="matrix(1,0,0,1,927.6832031594706,210.23104763017687) translate(130.44444444444446 351.66017137777783)"/><path d="M960.03 217.07h81.23c6.3 0 6.3 0 6.3 6.94v45.25c0 6.94 0 6.94-6.3 6.94h-81.23c-6.3 0-6.3 0-6.3-6.94V224c0-6.93 0-6.93 6.3-6.93z" fill="#aaa"/><path d="M960.03 222.85h81.75v45.83h-81.75v-45.83z" fill="#fff"/><path d="M961.07 224.6h79.67v42.34h-79.67V224.6z" fill="gray"/><path d="M949.6 289.8h103.12v9.84h-103.1v-9.82z" fill="#aaa"/><path d="M977.8 278.34h71.3l3.62 11.64H981.4l-3.62-11.64z" fill="#aaa"/><path d="M1023.6 278.34h-70.38l-3.6 11.56H1020l3.6-11.56z" fill="#aaa"/><path d="M983.25 280.57h61.73l2.47 7.76h-61.72l-2.48-7.76z" fill="#fff"/><path d="M1008.64 280.57h-51.8l-2.07 7.76h51.8l2.07-7.76z" fill="#fff"/><use xlink:href="#c" transform="matrix(1,0,0,1,919.6079458445274,299.64067134666993) translate(61.69135802469136 23.77777777777778)"/><path d="M441.52 221.12h110.13v65H441.52v-65z" fill="#aaa"/><path d="M487.9 285.64h19.26v11.34H487.9v-11.34z" fill="#aaa"/><path d="M445.16 223.52h102.3v58.76h-102.3v-58.76z" fill="#fff"/><path d="M446.6 224.96h99v55.9h-99v-55.9z" fill="#999"/><path d="M487.9 286.12h19.37v.56H487.9v-.56z" fill="#fff"/><path d="M497.36 291.94h.1c17.2 0 17.2 0 17.2 4.56 0 4.55 0 4.55-17.2 4.55h-.1c-17.18 0-17.18 0-17.18-4.55 0-4.56 0-4.56 17.18-4.56z" fill="#aaa"/><use xlink:href="#d" transform="matrix(1,0,0,1,411.5222511979713,300.96724055221244) translate(57.046296296296305 23.77777777777778)"/><path d="M455.4 416.84h81.23c6.3 0 6.3 0 6.3 6.94v45.25c0 6.93 0 6.93-6.3 6.93H455.4c-6.3 0-6.3 0-6.3-6.93v-45.25c0-6.94 0-6.94 6.3-6.94z" fill="#aaa"/><path d="M455.4 422.62h81.75v45.83H455.4v-45.83z" fill="#fff"/><path d="M456.44 424.36h79.68v42.36h-79.68v-42.36z" fill="gray"/><path d="M444.98 489.6h103.1v9.8H445v-9.8z" fill="#aaa"/><path d="M473.16 478.1h71.32l3.6 11.65h-71.3l-3.62-11.64z" fill="#aaa"/><path d="M518.98 478.1h-70.4l-3.6 11.57h70.4l3.6-11.56z" fill="#aaa"/><path d="M478.63 480.34h61.72l2.48 7.76H481.1l-2.47-7.76z" fill="#fff"/><path d="M504.02 480.34h-51.8l-2.08 7.76h51.8l2.08-7.76z" fill="#fff"/><use xlink:href="#e" transform="matrix(1,0,0,1,414.98086838445437,499.41367170227034) translate(62.18827160493828 23.77777777777778)"/><path d="M457.27 438.47h28.63v17.32h-28.63z" fill="none"/><use xlink:href="#f" transform="matrix(1,0,0,1,457.27069898327625,438.46948469776584) translate(3.095679012345684 11.222222222222221)"/><path d="M966.2 365.58h70.08V485.7H966.2V365.58z" fill="#aaa"/><path d="M992.95 448.98h35.63c1.12 0 1.12 0 1.12 1.2 0 1.08 0 1.08-1.12 1.08h-35.63c-1.2 0-1.2 0-1.2-1.08 0-1.2 0-1.2 1.2-1.2zM993.02 455.1h35.5c1.53 0 1.53 0 1.53 1.56v.36c0 1.56 0 1.56-1.54 1.56h-35.48c-1.6 0-1.6 0-1.6-1.56v-.36c0-1.56 0-1.56 1.6-1.56zM993.16 462.66h35.56c1.54 0 1.54 0 1.54 1.56v.36c0 1.56 0 1.56-1.54 1.56h-35.56c-1.54 0-1.54 0-1.54-1.56v-.36c0-1.56 0-1.56 1.54-1.56zM1025.57 423.9c0 3.12-2.52 5.64-5.74 5.64s-5.8-2.52-5.8-5.64c0-3.12 2.58-5.64 5.8-5.64 3.22 0 5.74 2.52 5.74 5.64z" fill="#fff"/><path d="M1023.26 423.9c0 1.92-1.54 3.48-3.5 3.48s-3.57-1.56-3.57-3.48 1.6-3.48 3.56-3.48 3.5 1.56 3.5 3.48z" fill="#bbb"/><use xlink:href="#c" transform="matrix(1,0,0,1,936.2141833715957,485.5791898472639) translate(44.69135802469136 23.77777777777778)"/><path d="M969.57 485.58V383.86h16.64v101.72z" fill="none"/><use xlink:href="#g" transform="matrix(6.123233995736766e-17,-1,1,6.123233995736766e-17,969.5671911577358,485.57918984726393) translate(8.45370370370373 10.722222222222221)"/><path d="M969.57 369.83h28.62v17.32h-28.63z" fill="none"/><use xlink:href="#h" transform="matrix(1,0,0,1,969.567191157736,369.82738864449556) translate(3.095679012345684 11.222222222222221)"/><path d="M702.53 300.97h102.64v175.95H702.53V300.97z" fill="#aaa"/><path d="M741.7 423.13h52.2c1.63 0 1.63 0 1.63 1.76 0 1.57 0 1.57-1.64 1.57h-52.2c-1.74 0-1.74 0-1.74-1.58 0-1.77 0-1.77 1.74-1.77zM741.8 432.1h52c2.24 0 2.24 0 2.24 2.28v.53c0 2.3 0 2.3-2.25 2.3h-52c-2.36 0-2.36 0-2.36-2.3v-.52c0-2.28 0-2.28 2.36-2.28zM742 443.17h52.1c2.25 0 2.25 0 2.25 2.3v.5c0 2.3 0 2.3-2.25 2.3H742c-2.25 0-2.25 0-2.25-2.3v-.5c0-2.3 0-2.3 2.26-2.3zM789.48 386.4c0 4.57-3.7 8.26-8.4 8.26-4.72 0-8.52-3.7-8.52-8.27 0-4.57 3.8-8.27 8.5-8.27 4.73 0 8.42 3.7 8.42 8.26z" fill="#fff"/><path d="M786.1 386.4c0 2.8-2.26 5.1-5.13 5.1s-5.23-2.3-5.23-5.1c0-2.82 2.36-5.1 5.23-5.1 2.87 0 5.13 2.28 5.13 5.1z" fill="#bbb"/><use xlink:href="#i" transform="matrix(1,0,0,1,672.5303842494127,476.74539632572595) translate(46.462962962962976 22.88888888888889)"/><path d="M949.84 408.64l-3.2-.2-7.84-.82-7.02-1.04-6.47-1.23-6.13-1.44-6.04-1.67-6.32-2.06-7.4-2.77-34.82-14.36-6.32-2.05-6.05-1.7-6.13-1.44-6.46-1.23-7.02-1.04-7.85-.83-3.2-.2" stroke="#fcce14" stroke-linejoin="round" fill="none"/><path d="M964.6 409.16l-14.43 4.13.33-9.27zM806.8 374.05l14.4-4.13-.32 9.27z" stroke="#fcce14" fill="#fcce14"/><path d="M473.2 229.15h28.6v17.3l-28.62.02z" fill="none"/><use xlink:href="#j" transform="matrix(1,0,0,1,473.18470660623916,229.14653818741402) translate(-21.759259259259238 10.777777777777777)"/><path d="M949.83 451.97l-1.47-.03-13.72-.85-11.43-1.2-10.4-1.55-11.14-2.13-43.07-9.55-10.43-1.54-11.43-1.2-13.72-.85-1.47-.03" stroke="#54c45e" stroke-linejoin="round" fill="none"/><path d="M964.6 452.26l-14.36 4.35.18-9.25zM806.8 432.76l14.34-4.35-.18 9.28z" stroke="#54c45e" fill="#54c45e"/><path d="M686.3 365.84l-1.26-.3-2.57-.7-2.52-.83-2.48-.92-2.45-1.03-2.45-1.15-2.45-1.28-2.47-1.43-2.5-1.6-2.58-1.78-2.65-2.02-2.77-2.3-2.95-2.65-3.18-3.12-3.55-3.78-4.17-4.84-5.48-6.93-26.94-36.56-4.17-4.83-3.54-3.78-3.18-3.14-2.94-2.65-2.78-2.28-2.65-2.02-2.56-1.78-2.5-1.6-2.48-1.42-2.45-1.3-2.43-1.14-2.46-1.03-2.47-.92-2.52-.8-2.56-.73-1.25-.3" stroke="#fcce14" stroke-linejoin="round" fill="none"/><path d="M700.92 367.5l-14.7 3 1.04-9.22zM553.26 261.23l14.7-3-1.05 9.2z" stroke="#fcce14" fill="#fcce14"/><path d="M686.17 437.9l-4.75.5-6.9 1-7.1 1.36-7.54 1.78-8.6 2.4-11.44 3.74-42.7 15.17-8.38 2.34-7.33 1.7-6.82 1.32-6.6.97-6.57.68-2.2.14" stroke="#54c45e" stroke-linejoin="round" fill="none"/><path d="M700.9 437.15l-14 5.34-.47-9.27zM544.47 471.33l14.16-4.93.2 9.27z" stroke="#54c45e" fill="#54c45e"/><path d="M1089.46 313.03h70.07v120.12h-70.07V313.03z" fill="#aaa"/><path d="M1116.2 396.43h35.63c1.12 0 1.12 0 1.12 1.2 0 1.08 0 1.08-1.12 1.08h-35.63c-1.2 0-1.2 0-1.2-1.07 0-1.2 0-1.2 1.2-1.2zM1116.27 402.55h35.5c1.53 0 1.53 0 1.53 1.56v.37c0 1.56 0 1.56-1.54 1.56h-35.5c-1.6 0-1.6 0-1.6-1.56v-.36c0-1.55 0-1.55 1.6-1.55zM1116.4 410.1h35.57c1.54 0 1.54 0 1.54 1.57v.36c0 1.56 0 1.56-1.53 1.56h-35.56c-1.53 0-1.53 0-1.53-1.57v-.36c0-1.56 0-1.56 1.54-1.56zM1148.82 371.35c0 3.12-2.52 5.64-5.74 5.64s-5.8-2.53-5.8-5.65c0-3.12 2.58-5.64 5.8-5.64 3.22 0 5.74 2.53 5.74 5.65z" fill="#fff"/><path d="M1146.5 371.35c0 1.92-1.53 3.48-3.5 3.48-1.95 0-3.56-1.56-3.56-3.48s1.6-3.48 3.57-3.48c1.97 0 3.5 1.56 3.5 3.48z" fill="#bbb"/><use xlink:href="#k" transform="matrix(1,0,0,1,1059.456072207801,433.0332346475366) translate(15.827160493827172 23.77777777777778)"/><use xlink:href="#l" transform="matrix(1,0,0,1,1059.456072207801,433.0332346475366) translate(68.45679012345678 23.77777777777778)"/><path d="M821.5 351.78l2.58-.38 3.5-.67 3.2-.75 2.95-.82 2.7-.88 2.53-.93 2.37-1 2.24-1.05 2.12-1.1 2.02-1.2 1.96-1.23 1.9-1.32 1.87-1.4 1.83-1.53 1.82-1.64 1.83-1.8 1.86-1.98 1.92-2.24 2.05-2.6 2.28-3.12 2.72-4.1 4.4-7.3 9.88-16.93 2.9-4.35 2.44-3.38 2.23-2.83 2.14-2.47 2.08-2.22 2.06-2.02 2.1-1.87 2.1-1.74 2.14-1.63 2.22-1.55 2.3-1.47 2.42-1.4 2.54-1.32 2.7-1.27 2.88-1.22 3.1-1.15 3.34-1.08 3.66-1.03 4.02-.94 4.04-.77" stroke="#6db1ff" stroke-linejoin="round" fill="none"/><path d="M806.8 352.75l13.92-5.56.6 9.24zM952.13 258.53l-13.7 6.14-.98-9.22z" stroke="#6db1ff" fill="#6db1ff"/><path d="M686.17 389.63l-4.27.45-5.6.83-5.2 1-4.9 1.15-4.7 1.3-4.56 1.5-4.55 1.68-4.7 1.97-5.02 2.37-5.9 3.1-9.9 5.76-18.2 10.8-5.9 3.1-5.03 2.38-4.68 1.97-4.55 1.7-4.57 1.48-4.68 1.3-4.9 1.16-5.2 1-5.6.82-4.28.45" stroke="#6db1ff" stroke-linejoin="round" fill="none"/><path d="M700.9 388.93l-14.02 5.3-.44-9.25zM544.55 437.57l14.03-5.3.44 9.25z" stroke="#6db1ff" fill="#6db1ff"/><path d="M1090.98 433.03V331.3h16.65v101.73z" fill="none"/><use xlink:href="#m" transform="matrix(6.123233995736766e-17,-1,1,6.123233995736766e-17,1090.9795722680765,433.0332346475366) translate(7.558641975308674 10.722222222222221)"/><path d="M444.27 425.7H546v16.64H444.26z" fill="none"/><use xlink:href="#n" transform="matrix(1,0,0,1,444.27069898327625,425.6915436932572) translate(16.24691358024694 10.277777777777777)"/><path d="M1063.8 260.06l.45.1 1.52.45 1.32.46 1.17.45 1.04.47.95.46.85.47.77.46.7.47.64.47.6.48.55.48.5.48.48.5.44.5.4.5.4.53.35.53.34.55.3.57.3.6.27.6.25.66.23.67.22.72.2.76.15.8.13.87.1.94.07 1 .03 1.13-.03 1.23-.1 1.38-.15 1.55-.28 1.78-.4 2.08-.6 2.47-.9 3.05-1.34 3.95-2.2 5.66-6.65 14.9-7.06 15.74-2.17 5.56-1.3 3.85-.87 2.97-.6 2.4-.38 2-.27 1.72-.15 1.5-.1 1.32v2.26l.08.97.1.9.12.82.16.77.2.7.2.7.2.64.24.6.26.6.28.56.3.54.3.52.35.5.37.5.38.48.42.48.44.46.48.46.52.45.55.44.6.44.66.44.72.43.8.44.87.42.98.43 1.1.43 1.23.42 1.4.4 1.62.4 1.88.37 1.35.2" stroke="#6db1ff" stroke-linejoin="round" fill="none"/><path d="M1049.17 258.52l14.67-3.12-.97 9.22zM1087.84 372.98l-14.42 4.15.32-9.27z" stroke="#6db1ff" fill="#6db1ff"/><defs><path fill="#aaa" d="M30-248c87 1 191-15 191 75 0 78-77 80-158 76V0H30v-248zm33 125c57 0 124 11 124-50 0-59-68-47-124-48v98" id="o"/><path fill="#aaa" d="M114-163C36-179 61-72 57 0H25l-1-190h30c1 12-1 29 2 39 6-27 23-49 58-41v29" id="p"/><path fill="#aaa" d="M24-231v-30h32v30H24zM24 0v-190h32V0H24" id="q"/><path fill="#aaa" d="M108 0H70L1-190h34L89-25l56-165h34" id="r"/><path fill="#aaa" d="M141-36C126-15 110 5 73 4 37 3 15-17 15-53c-1-64 63-63 125-63 3-35-9-54-41-54-24 1-41 7-42 31l-33-3c5-37 33-52 76-52 45 0 72 20 72 64v82c-1 20 7 32 28 27v20c-31 9-61-2-59-35zM48-53c0 20 12 33 32 33 41-3 63-29 60-74-43 2-92-5-92 41" id="s"/><path fill="#aaa" d="M59-47c-2 24 18 29 38 22v24C64 9 27 4 27-40v-127H5v-23h24l9-43h21v43h35v23H59v120" id="t"/><path fill="#aaa" d="M100-194c63 0 86 42 84 106H49c0 40 14 67 53 68 26 1 43-12 49-29l28 8c-11 28-37 45-77 45C44 4 14-33 15-96c1-61 26-98 85-98zm52 81c6-60-76-77-97-28-3 7-6 17-6 28h103" id="u"/><g id="a"><use transform="matrix(0.06172839506172839,0,0,0.06172839506172839,0,0)" xlink:href="#o"/><use transform="matrix(0.06172839506172839,0,0,0.06172839506172839,14.814814814814813,0)" xlink:href="#p"/><use transform="matrix(0.06172839506172839,0,0,0.06172839506172839,22.160493827160494,0)" xlink:href="#q"/><use transform="matrix(0.06172839506172839,0,0,0.06172839506172839,27.037037037037038,0)" xlink:href="#r"/><use transform="matrix(0.06172839506172839,0,0,0.06172839506172839,38.14814814814815,0)" xlink:href="#s"/><use transform="matrix(0.06172839506172839,0,0,0.06172839506172839,50.49382716049383,0)" xlink:href="#t"/><use transform="matrix(0.06172839506172839,0,0,0.06172839506172839,56.66666666666667,0)" xlink:href="#u"/></g><path fill="#aaa" d="M190 0L58-211 59 0H30v-248h39L202-35l-2-213h31V0h-41" id="v"/><path fill="#aaa" d="M206 0h-36l-40-164L89 0H53L-1-190h32L70-26l43-164h34l41 164 42-164h31" id="w"/><path fill="#aaa" d="M100-194c62-1 85 37 85 99 1 63-27 99-86 99S16-35 15-95c0-66 28-99 85-99zM99-20c44 1 53-31 53-75 0-43-8-75-51-75s-53 32-53 75 10 74 51 75" id="x"/><path fill="#aaa" d="M143 0L79-87 56-68V0H24v-261h32v163l83-92h37l-77 82L181 0h-38" id="y"/><g id="b"><use transform="matrix(0.06172839506172839,0,0,0.06172839506172839,0,0)" xlink:href="#v"/><use transform="matrix(0.06172839506172839,0,0,0.06172839506172839,15.987654320987653,0)" xlink:href="#u"/><use transform="matrix(0.06172839506172839,0,0,0.06172839506172839,28.333333333333332,0)" xlink:href="#t"/><use transform="matrix(0.06172839506172839,0,0,0.06172839506172839,34.50617283950617,0)" xlink:href="#w"/><use transform="matrix(0.06172839506172839,0,0,0.06172839506172839,50.49382716049382,0)" xlink:href="#x"/><use transform="matrix(0.06172839506172839,0,0,0.06172839506172839,62.8395061728395,0)" xlink:href="#p"/><use transform="matrix(0.06172839506172839,0,0,0.06172839506172839,70.18518518518518,0)" xlink:href="#y"/></g><path fill="#aaa" d="M205 0l-28-72H64L36 0H1l101-248h38L239 0h-34zm-38-99l-47-123c-12 45-31 82-46 123h93" id="z"/><path fill="#aaa" d="M177-190C167-65 218 103 67 71c-23-6-38-20-44-43l32-5c15 47 100 32 89-28v-30C133-14 115 1 83 1 29 1 15-40 15-95c0-56 16-97 71-98 29-1 48 16 59 35 1-10 0-23 2-32h30zM94-22c36 0 50-32 50-73 0-42-14-75-50-75-39 0-46 34-46 75s6 73 46 73" id="A"/><path fill="#aaa" d="M117-194c89-4 53 116 60 194h-32v-121c0-31-8-49-39-48C34-167 62-67 57 0H25l-1-190h30c1 10-1 24 2 32 11-22 29-35 61-36" id="B"/><g id="c"><use transform="matrix(0.04320987654320987,0,0,0.04320987654320987,0,0)" xlink:href="#z"/><use transform="matrix(0.04320987654320987,0,0,0.04320987654320987,10.370370370370368,0)" xlink:href="#A"/><use transform="matrix(0.04320987654320987,0,0,0.04320987654320987,19.01234567901234,0)" xlink:href="#u"/><use transform="matrix(0.04320987654320987,0,0,0.04320987654320987,27.654320987654316,0)" xlink:href="#B"/><use transform="matrix(0.04320987654320987,0,0,0.04320987654320987,36.29629629629629,0)" xlink:href="#t"/></g><path fill="#aaa" d="M160-131c35 5 61 23 61 61C221 17 115-2 30 0v-248c76 3 177-17 177 60 0 33-19 50-47 57zm-97-11c50-1 110 9 110-42 0-47-63-36-110-37v79zm0 115c55-2 124 14 124-45 0-56-70-42-124-44v89" id="C"/><path fill="#aaa" d="M135-143c-3-34-86-38-87 0 15 53 115 12 119 90S17 21 10-45l28-5c4 36 97 45 98 0-10-56-113-15-118-90-4-57 82-63 122-42 12 7 21 19 24 35" id="D"/><g id="d"><use transform="matrix(0.04320987654320987,0,0,0.04320987654320987,0,0)" xlink:href="#C"/><use transform="matrix(0.04320987654320987,0,0,0.04320987654320987,10.370370370370368,0)" xlink:href="#p"/><use transform="matrix(0.04320987654320987,0,0,0.04320987654320987,15.512345679012343,0)" xlink:href="#x"/><use transform="matrix(0.04320987654320987,0,0,0.04320987654320987,24.154320987654316,0)" xlink:href="#w"/><use transform="matrix(0.04320987654320987,0,0,0.04320987654320987,35.34567901234567,0)" xlink:href="#D"/><use transform="matrix(0.04320987654320987,0,0,0.04320987654320987,43.12345679012345,0)" xlink:href="#u"/><use transform="matrix(0.04320987654320987,0,0,0.04320987654320987,51.76543209876542,0)" xlink:href="#p"/></g><path fill="#aaa" d="M212-179c-10-28-35-45-73-45-59 0-87 40-87 99 0 60 29 101 89 101 43 0 62-24 78-52l27 14C228-24 195 4 139 4 59 4 22-46 18-125c-6-104 99-153 187-111 19 9 31 26 39 46" id="E"/><path fill="#aaa" d="M24 0v-261h32V0H24" id="F"/><g id="e"><use transform="matrix(0.04320987654320987,0,0,0.04320987654320987,0,0)" xlink:href="#E"/><use transform="matrix(0.04320987654320987,0,0,0.04320987654320987,11.191358024691356,0)" xlink:href="#F"/><use transform="matrix(0.04320987654320987,0,0,0.04320987654320987,14.604938271604935,0)" xlink:href="#q"/><use transform="matrix(0.04320987654320987,0,0,0.04320987654320987,18.018518518518515,0)" xlink:href="#u"/><use transform="matrix(0.04320987654320987,0,0,0.04320987654320987,26.660493827160487,0)" xlink:href="#B"/><use transform="matrix(0.04320987654320987,0,0,0.04320987654320987,35.30246913580246,0)" xlink:href="#t"/></g><path fill="#54c45e" d="M185-189c-5-48-123-54-124 2 14 75 158 14 163 119 3 78-121 87-175 55-17-10-28-26-33-46l33-7c5 56 141 63 141-1 0-78-155-14-162-118-5-82 145-84 179-34 5 7 8 16 11 25" id="G"/><path fill="#54c45e" d="M197 0v-115H63V0H30v-248h33v105h134v-105h34V0h-34" id="H"/><g id="f"><use transform="matrix(0.030864197530864182,0,0,0.030864197530864182,0,0)" xlink:href="#G"/><use transform="matrix(0.030864197530864182,0,0,0.030864197530864182,7.407407407407404,0)" xlink:href="#G"/><use transform="matrix(0.030864197530864182,0,0,0.030864197530864182,14.814814814814808,0)" xlink:href="#H"/></g><path fill="#fcce14" d="M106-169C34-169 62-67 57 0H25v-261h32l-1 103c12-21 28-36 61-36 89 0 53 116 60 194h-32v-121c2-32-8-49-39-48" id="I"/><path fill="#fcce14" d="M59-47c-2 24 18 29 38 22v24C64 9 27 4 27-40v-127H5v-23h24l9-43h21v43h35v23H59v120" id="J"/><path fill="#fcce14" d="M115-194c55 1 70 41 70 98S169 2 115 4C84 4 66-9 55-30l1 105H24l-1-265h31l2 30c10-21 28-34 59-34zm-8 174c40 0 45-34 45-75s-6-73-45-74c-42 0-51 32-51 76 0 43 10 73 51 73" id="K"/><path fill="#fcce14" d="M33-154v-36h34v36H33zM33 0v-36h34V0H33" id="L"/><path fill="#fcce14" d="M0 4l72-265h28L28 4H0" id="M"/><path fill="#fcce14" d="M117-194c89-4 53 116 60 194h-32v-121c0-31-8-49-39-48C34-167 62-67 57 0H25l-1-190h30c1 10-1 24 2 32 11-22 29-35 61-36" id="N"/><path fill="#fcce14" d="M141-36C126-15 110 5 73 4 37 3 15-17 15-53c-1-64 63-63 125-63 3-35-9-54-41-54-24 1-41 7-42 31l-33-3c5-37 33-52 76-52 45 0 72 20 72 64v82c-1 20 7 32 28 27v20c-31 9-61-2-59-35zM48-53c0 20 12 33 32 33 41-3 63-29 60-74-43 2-92-5-92 41" id="O"/><path fill="#fcce14" d="M114-163C36-179 61-72 57 0H25l-1-190h30c1 12-1 29 2 39 6-27 23-49 58-41v29" id="P"/><path fill="#fcce14" d="M100-194c62-1 85 37 85 99 1 63-27 99-86 99S16-35 15-95c0-66 28-99 85-99zM99-20c44 1 53-31 53-75 0-43-8-75-51-75s-53 32-53 75 10 74 51 75" id="Q"/><path fill="#fcce14" d="M206 0h-36l-40-164L89 0H53L-1-190h32L70-26l43-164h34l41 164 42-164h31" id="R"/><path fill="#fcce14" d="M33 0v-38h34V0H33" id="S"/><path fill="#fcce14" d="M135-143c-3-34-86-38-87 0 15 53 115 12 119 90S17 21 10-45l28-5c4 36 97 45 98 0-10-56-113-15-118-90-4-57 82-63 122-42 12 7 21 19 24 35" id="T"/><g id="g"><use transform="matrix(0.030864197530864182,0,0,0.030864197530864182,0,0)" xlink:href="#I"/><use transform="matrix(0.030864197530864182,0,0,0.030864197530864182,6.172839506172837,0)" xlink:href="#J"/><use transform="matrix(0.030864197530864182,0,0,0.030864197530864182,9.259259259259256,0)" xlink:href="#J"/><use transform="matrix(0.030864197530864182,0,0,0.030864197530864182,12.345679012345673,0)" xlink:href="#K"/><use transform="matrix(0.030864197530864182,0,0,0.030864197530864182,18.518518518518512,0)" xlink:href="#L"/><use transform="matrix(0.030864197530864182,0,0,0.030864197530864182,21.60493827160493,0)" xlink:href="#M"/><use transform="matrix(0.030864197530864182,0,0,0.030864197530864182,24.691358024691347,0)" xlink:href="#M"/><use transform="matrix(0.030864197530864182,0,0,0.030864197530864182,27.777777777777764,0)" xlink:href="#N"/><use transform="matrix(0.030864197530864182,0,0,0.030864197530864182,33.9506172839506,0)" xlink:href="#O"/><use transform="matrix(0.030864197530864182,0,0,0.030864197530864182,40.123456790123434,0)" xlink:href="#P"/><use transform="matrix(0.030864197530864182,0,0,0.030864197530864182,43.79629629629627,0)" xlink:href="#P"/><use transform="matrix(0.030864197530864182,0,0,0.030864197530864182,47.469135802469104,0)" xlink:href="#Q"/><use transform="matrix(0.030864197530864182,0,0,0.030864197530864182,53.64197530864194,0)" xlink:href="#R"/><use transform="matrix(0.030864197530864182,0,0,0.030864197530864182,61.018518518518476,0)" xlink:href="#S"/><use transform="matrix(0.030864197530864182,0,0,0.030864197530864182,64.1049382716049,0)" xlink:href="#I"/><use transform="matrix(0.030864197530864182,0,0,0.030864197530864182,70.27777777777773,0)" xlink:href="#Q"/><use transform="matrix(0.030864197530864182,0,0,0.030864197530864182,76.45061728395056,0)" xlink:href="#T"/><use transform="matrix(0.030864197530864182,0,0,0.030864197530864182,82.00617283950612,0)" xlink:href="#J"/></g><path fill="#288b32" d="M185-189c-5-48-123-54-124 2 14 75 158 14 163 119 3 78-121 87-175 55-17-10-28-26-33-46l33-7c5 56 141 63 141-1 0-78-155-14-162-118-5-82 145-84 179-34 5 7 8 16 11 25" id="U"/><path fill="#288b32" d="M197 0v-115H63V0H30v-248h33v105h134v-105h34V0h-34" id="V"/><g id="h"><use transform="matrix(0.030864197530864182,0,0,0.030864197530864182,0,0)" xlink:href="#U"/><use transform="matrix(0.030864197530864182,0,0,0.030864197530864182,7.407407407407404,0)" xlink:href="#U"/><use transform="matrix(0.030864197530864182,0,0,0.030864197530864182,14.814814814814808,0)" xlink:href="#V"/></g><path fill="#aaa" d="M143 4C61 4 22-44 18-125c-5-107 100-154 193-111 17 8 29 25 37 43l-32 9c-13-25-37-40-76-40-61 0-88 39-88 99 0 61 29 100 91 101 35 0 62-11 79-27v-45h-74v-28h105v86C228-13 192 4 143 4" id="W"/><path fill="#aaa" d="M179-190L93 31C79 59 56 82 12 73V49c39 6 53-20 64-50L1-190h34L92-34l54-156h33" id="X"/><g id="i"><use transform="matrix(0.049382716049382706,0,0,0.049382716049382706,0,0)" xlink:href="#W"/><use transform="matrix(0.049382716049382706,0,0,0.049382716049382706,13.827160493827158,0)" xlink:href="#s"/><use transform="matrix(0.049382716049382706,0,0,0.049382716049382706,23.7037037037037,0)" xlink:href="#t"/><use transform="matrix(0.049382716049382706,0,0,0.049382716049382706,28.64197530864197,0)" xlink:href="#u"/><use transform="matrix(0.049382716049382706,0,0,0.049382716049382706,38.518518518518505,0)" xlink:href="#w"/><use transform="matrix(0.049382716049382706,0,0,0.049382716049382706,51.30864197530862,0)" xlink:href="#s"/><use transform="matrix(0.049382716049382706,0,0,0.049382716049382706,61.18518518518516,0)" xlink:href="#X"/></g><path fill="#ffe342" d="M106-169C34-169 62-67 57 0H25v-261h32l-1 103c12-21 28-36 61-36 89 0 53 116 60 194h-32v-121c2-32-8-49-39-48" id="Y"/><path fill="#ffe342" d="M59-47c-2 24 18 29 38 22v24C64 9 27 4 27-40v-127H5v-23h24l9-43h21v43h35v23H59v120" id="Z"/><path fill="#ffe342" d="M115-194c55 1 70 41 70 98S169 2 115 4C84 4 66-9 55-30l1 105H24l-1-265h31l2 30c10-21 28-34 59-34zm-8 174c40 0 45-34 45-75s-6-73-45-74c-42 0-51 32-51 76 0 43 10 73 51 73" id="aa"/><path fill="#ffe342" d="M135-143c-3-34-86-38-87 0 15 53 115 12 119 90S17 21 10-45l28-5c4 36 97 45 98 0-10-56-113-15-118-90-4-57 82-63 122-42 12 7 21 19 24 35" id="ab"/><path fill="#ffe342" d="M33-154v-36h34v36H33zM33 0v-36h34V0H33" id="ac"/><path fill="#ffe342" d="M0 4l72-265h28L28 4H0" id="ad"/><path fill="#ffe342" d="M117-194c89-4 53 116 60 194h-32v-121c0-31-8-49-39-48C34-167 62-67 57 0H25l-1-190h30c1 10-1 24 2 32 11-22 29-35 61-36" id="ae"/><path fill="#ffe342" d="M141-36C126-15 110 5 73 4 37 3 15-17 15-53c-1-64 63-63 125-63 3-35-9-54-41-54-24 1-41 7-42 31l-33-3c5-37 33-52 76-52 45 0 72 20 72 64v82c-1 20 7 32 28 27v20c-31 9-61-2-59-35zM48-53c0 20 12 33 32 33 41-3 63-29 60-74-43 2-92-5-92 41" id="af"/><path fill="#ffe342" d="M114-163C36-179 61-72 57 0H25l-1-190h30c1 12-1 29 2 39 6-27 23-49 58-41v29" id="ag"/><path fill="#ffe342" d="M100-194c62-1 85 37 85 99 1 63-27 99-86 99S16-35 15-95c0-66 28-99 85-99zM99-20c44 1 53-31 53-75 0-43-8-75-51-75s-53 32-53 75 10 74 51 75" id="ah"/><path fill="#ffe342" d="M206 0h-36l-40-164L89 0H53L-1-190h32L70-26l43-164h34l41 164 42-164h31" id="ai"/><path fill="#ffe342" d="M33 0v-38h34V0H33" id="aj"/><g id="j"><use transform="matrix(0.024691358024691343,0,0,0.024691358024691343,0,0)" xlink:href="#Y"/><use transform="matrix(0.024691358024691343,0,0,0.024691358024691343,4.938271604938269,0)" xlink:href="#Z"/><use transform="matrix(0.024691358024691343,0,0,0.024691358024691343,7.407407407407403,0)" xlink:href="#Z"/><use transform="matrix(0.024691358024691343,0,0,0.024691358024691343,9.876543209876537,0)" xlink:href="#aa"/><use transform="matrix(0.024691358024691343,0,0,0.024691358024691343,14.814814814814806,0)" xlink:href="#ab"/><use transform="matrix(0.024691358024691343,0,0,0.024691358024691343,19.25925925925925,0)" xlink:href="#ac"/><use transform="matrix(0.024691358024691343,0,0,0.024691358024691343,21.728395061728385,0)" xlink:href="#ad"/><use transform="matrix(0.024691358024691343,0,0,0.024691358024691343,24.197530864197518,0)" xlink:href="#ad"/><use transform="matrix(0.024691358024691343,0,0,0.024691358024691343,26.66666666666665,0)" xlink:href="#ae"/><use transform="matrix(0.024691358024691343,0,0,0.024691358024691343,31.60493827160492,0)" xlink:href="#af"/><use transform="matrix(0.024691358024691343,0,0,0.024691358024691343,36.54320987654319,0)" xlink:href="#ag"/><use transform="matrix(0.024691358024691343,0,0,0.024691358024691343,39.48148148148146,0)" xlink:href="#ag"/><use transform="matrix(0.024691358024691343,0,0,0.024691358024691343,42.41975308641973,0)" xlink:href="#ah"/><use transform="matrix(0.024691358024691343,0,0,0.024691358024691343,47.358024691358,0)" xlink:href="#ai"/><use transform="matrix(0.024691358024691343,0,0,0.024691358024691343,53.259259259259224,0)" xlink:href="#aj"/><use transform="matrix(0.024691358024691343,0,0,0.024691358024691343,55.728395061728364,0)" xlink:href="#Y"/><use transform="matrix(0.024691358024691343,0,0,0.024691358024691343,60.66666666666663,0)" xlink:href="#ah"/><use transform="matrix(0.024691358024691343,0,0,0.024691358024691343,65.6049382716049,0)" xlink:href="#ab"/><use transform="matrix(0.024691358024691343,0,0,0.024691358024691343,70.04938271604934,0)" xlink:href="#Z"/></g><g id="k"><use transform="matrix(0.04320987654320987,0,0,0.04320987654320987,0,0)" xlink:href="#o"/><use transform="matrix(0.04320987654320987,0,0,0.04320987654320987,10.370370370370368,0)" xlink:href="#p"/><use transform="matrix(0.04320987654320987,0,0,0.04320987654320987,15.512345679012343,0)" xlink:href="#q"/><use transform="matrix(0.04320987654320987,0,0,0.04320987654320987,18.925925925925924,0)" xlink:href="#r"/><use transform="matrix(0.04320987654320987,0,0,0.04320987654320987,26.7037037037037,0)" xlink:href="#s"/><use transform="matrix(0.04320987654320987,0,0,0.04320987654320987,35.34567901234567,0)" xlink:href="#t"/><use transform="matrix(0.04320987654320987,0,0,0.04320987654320987,39.66666666666666,0)" xlink:href="#u"/></g><path fill="#aaa" d="M185-189c-5-48-123-54-124 2 14 75 158 14 163 119 3 78-121 87-175 55-17-10-28-26-33-46l33-7c5 56 141 63 141-1 0-78-155-14-162-118-5-82 145-84 179-34 5 7 8 16 11 25" id="ak"/><g id="l"><use transform="matrix(0.04320987654320987,0,0,0.04320987654320987,0,0)" xlink:href="#ak"/><use transform="matrix(0.04320987654320987,0,0,0.04320987654320987,10.370370370370368,0)" xlink:href="#u"/><use transform="matrix(0.04320987654320987,0,0,0.04320987654320987,19.01234567901234,0)" xlink:href="#p"/><use transform="matrix(0.04320987654320987,0,0,0.04320987654320987,24.154320987654316,0)" xlink:href="#r"/><use transform="matrix(0.04320987654320987,0,0,0.04320987654320987,31.93209876543209,0)" xlink:href="#u"/><use transform="matrix(0.04320987654320987,0,0,0.04320987654320987,40.57407407407406,0)" xlink:href="#p"/></g><path fill="#4087de" d="M106-169C34-169 62-67 57 0H25v-261h32l-1 103c12-21 28-36 61-36 89 0 53 116 60 194h-32v-121c2-32-8-49-39-48" id="al"/><path fill="#4087de" d="M59-47c-2 24 18 29 38 22v24C64 9 27 4 27-40v-127H5v-23h24l9-43h21v43h35v23H59v120" id="am"/><path fill="#4087de" d="M115-194c55 1 70 41 70 98S169 2 115 4C84 4 66-9 55-30l1 105H24l-1-265h31l2 30c10-21 28-34 59-34zm-8 174c40 0 45-34 45-75s-6-73-45-74c-42 0-51 32-51 76 0 43 10 73 51 73" id="an"/><path fill="#4087de" d="M33-154v-36h34v36H33zM33 0v-36h34V0H33" id="ao"/><path fill="#4087de" d="M0 4l72-265h28L28 4H0" id="ap"/><path fill="#4087de" d="M117-194c89-4 53 116 60 194h-32v-121c0-31-8-49-39-48C34-167 62-67 57 0H25l-1-190h30c1 10-1 24 2 32 11-22 29-35 61-36" id="aq"/><path fill="#4087de" d="M141-36C126-15 110 5 73 4 37 3 15-17 15-53c-1-64 63-63 125-63 3-35-9-54-41-54-24 1-41 7-42 31l-33-3c5-37 33-52 76-52 45 0 72 20 72 64v82c-1 20 7 32 28 27v20c-31 9-61-2-59-35zM48-53c0 20 12 33 32 33 41-3 63-29 60-74-43 2-92-5-92 41" id="ar"/><path fill="#4087de" d="M114-163C36-179 61-72 57 0H25l-1-190h30c1 12-1 29 2 39 6-27 23-49 58-41v29" id="as"/><path fill="#4087de" d="M100-194c62-1 85 37 85 99 1 63-27 99-86 99S16-35 15-95c0-66 28-99 85-99zM99-20c44 1 53-31 53-75 0-43-8-75-51-75s-53 32-53 75 10 74 51 75" id="at"/><path fill="#4087de" d="M206 0h-36l-40-164L89 0H53L-1-190h32L70-26l43-164h34l41 164 42-164h31" id="au"/><path fill="#4087de" d="M33 0v-38h34V0H33" id="av"/><path fill="#4087de" d="M24 0v-261h32V0H24" id="aw"/><path fill="#4087de" d="M96-169c-40 0-48 33-48 73s9 75 48 75c24 0 41-14 43-38l32 2c-6 37-31 61-74 61-59 0-76-41-82-99-10-93 101-131 147-64 4 7 5 14 7 22l-32 3c-4-21-16-35-41-35" id="ax"/><g id="m"><use transform="matrix(0.030864197530864182,0,0,0.030864197530864182,0,0)" xlink:href="#al"/><use transform="matrix(0.030864197530864182,0,0,0.030864197530864182,6.172839506172837,0)" xlink:href="#am"/><use transform="matrix(0.030864197530864182,0,0,0.030864197530864182,9.259259259259256,0)" xlink:href="#am"/><use transform="matrix(0.030864197530864182,0,0,0.030864197530864182,12.345679012345673,0)" xlink:href="#an"/><use transform="matrix(0.030864197530864182,0,0,0.030864197530864182,18.518518518518512,0)" xlink:href="#ao"/><use transform="matrix(0.030864197530864182,0,0,0.030864197530864182,21.60493827160493,0)" xlink:href="#ap"/><use transform="matrix(0.030864197530864182,0,0,0.030864197530864182,24.691358024691347,0)" xlink:href="#ap"/><use transform="matrix(0.030864197530864182,0,0,0.030864197530864182,27.777777777777764,0)" xlink:href="#aq"/><use transform="matrix(0.030864197530864182,0,0,0.030864197530864182,33.9506172839506,0)" xlink:href="#ar"/><use transform="matrix(0.030864197530864182,0,0,0.030864197530864182,40.123456790123434,0)" xlink:href="#as"/><use transform="matrix(0.030864197530864182,0,0,0.030864197530864182,43.79629629629627,0)" xlink:href="#as"/><use transform="matrix(0.030864197530864182,0,0,0.030864197530864182,47.469135802469104,0)" xlink:href="#at"/><use transform="matrix(0.030864197530864182,0,0,0.030864197530864182,53.64197530864194,0)" xlink:href="#au"/><use transform="matrix(0.030864197530864182,0,0,0.030864197530864182,61.018518518518476,0)" xlink:href="#av"/><use transform="matrix(0.030864197530864182,0,0,0.030864197530864182,64.1049382716049,0)" xlink:href="#aw"/><use transform="matrix(0.030864197530864182,0,0,0.030864197530864182,66.54320987654316,0)" xlink:href="#at"/><use transform="matrix(0.030864197530864182,0,0,0.030864197530864182,72.716049382716,0)" xlink:href="#ax"/><use transform="matrix(0.030864197530864182,0,0,0.030864197530864182,78.27160493827155,0)" xlink:href="#ar"/><use transform="matrix(0.030864197530864182,0,0,0.030864197530864182,84.44444444444439,0)" xlink:href="#aw"/></g><path fill="#6db1ff" d="M106-169C34-169 62-67 57 0H25v-261h32l-1 103c12-21 28-36 61-36 89 0 53 116 60 194h-32v-121c2-32-8-49-39-48" id="ay"/><path fill="#6db1ff" d="M59-47c-2 24 18 29 38 22v24C64 9 27 4 27-40v-127H5v-23h24l9-43h21v43h35v23H59v120" id="az"/><path fill="#6db1ff" d="M115-194c55 1 70 41 70 98S169 2 115 4C84 4 66-9 55-30l1 105H24l-1-265h31l2 30c10-21 28-34 59-34zm-8 174c40 0 45-34 45-75s-6-73-45-74c-42 0-51 32-51 76 0 43 10 73 51 73" id="aA"/><path fill="#6db1ff" d="M33-154v-36h34v36H33zM33 0v-36h34V0H33" id="aB"/><path fill="#6db1ff" d="M0 4l72-265h28L28 4H0" id="aC"/><path fill="#6db1ff" d="M117-194c89-4 53 116 60 194h-32v-121c0-31-8-49-39-48C34-167 62-67 57 0H25l-1-190h30c1 10-1 24 2 32 11-22 29-35 61-36" id="aD"/><path fill="#6db1ff" d="M141-36C126-15 110 5 73 4 37 3 15-17 15-53c-1-64 63-63 125-63 3-35-9-54-41-54-24 1-41 7-42 31l-33-3c5-37 33-52 76-52 45 0 72 20 72 64v82c-1 20 7 32 28 27v20c-31 9-61-2-59-35zM48-53c0 20 12 33 32 33 41-3 63-29 60-74-43 2-92-5-92 41" id="aE"/><path fill="#6db1ff" d="M114-163C36-179 61-72 57 0H25l-1-190h30c1 12-1 29 2 39 6-27 23-49 58-41v29" id="aF"/><path fill="#6db1ff" d="M100-194c62-1 85 37 85 99 1 63-27 99-86 99S16-35 15-95c0-66 28-99 85-99zM99-20c44 1 53-31 53-75 0-43-8-75-51-75s-53 32-53 75 10 74 51 75" id="aG"/><path fill="#6db1ff" d="M206 0h-36l-40-164L89 0H53L-1-190h32L70-26l43-164h34l41 164 42-164h31" id="aH"/><path fill="#6db1ff" d="M33 0v-38h34V0H33" id="aI"/><path fill="#6db1ff" d="M24 0v-261h32V0H24" id="aJ"/><path fill="#6db1ff" d="M96-169c-40 0-48 33-48 73s9 75 48 75c24 0 41-14 43-38l32 2c-6 37-31 61-74 61-59 0-76-41-82-99-10-93 101-131 147-64 4 7 5 14 7 22l-32 3c-4-21-16-35-41-35" id="aK"/><g id="n"><use transform="matrix(0.024691358024691343,0,0,0.024691358024691343,0,0)" xlink:href="#ay"/><use transform="matrix(0.024691358024691343,0,0,0.024691358024691343,4.938271604938269,0)" xlink:href="#az"/><use transform="matrix(0.024691358024691343,0,0,0.024691358024691343,7.407407407407403,0)" xlink:href="#az"/><use transform="matrix(0.024691358024691343,0,0,0.024691358024691343,9.876543209876537,0)" xlink:href="#aA"/><use transform="matrix(0.024691358024691343,0,0,0.024691358024691343,14.814814814814806,0)" xlink:href="#aB"/><use transform="matrix(0.024691358024691343,0,0,0.024691358024691343,17.283950617283942,0)" xlink:href="#aC"/><use transform="matrix(0.024691358024691343,0,0,0.024691358024691343,19.753086419753075,0)" xlink:href="#aC"/><use transform="matrix(0.024691358024691343,0,0,0.024691358024691343,22.222222222222207,0)" xlink:href="#aD"/><use transform="matrix(0.024691358024691343,0,0,0.024691358024691343,27.160493827160476,0)" xlink:href="#aE"/><use transform="matrix(0.024691358024691343,0,0,0.024691358024691343,32.098765432098745,0)" xlink:href="#aF"/><use transform="matrix(0.024691358024691343,0,0,0.024691358024691343,35.03703703703702,0)" xlink:href="#aF"/><use transform="matrix(0.024691358024691343,0,0,0.024691358024691343,37.97530864197529,0)" xlink:href="#aG"/><use transform="matrix(0.024691358024691343,0,0,0.024691358024691343,42.913580246913554,0)" xlink:href="#aH"/><use transform="matrix(0.024691358024691343,0,0,0.024691358024691343,48.81481481481478,0)" xlink:href="#aI"/><use transform="matrix(0.024691358024691343,0,0,0.024691358024691343,51.28395061728392,0)" xlink:href="#aJ"/><use transform="matrix(0.024691358024691343,0,0,0.024691358024691343,53.23456790123453,0)" xlink:href="#aG"/><use transform="matrix(0.024691358024691343,0,0,0.024691358024691343,58.17283950617279,0)" xlink:href="#aK"/><use transform="matrix(0.024691358024691343,0,0,0.024691358024691343,62.617283950617235,0)" xlink:href="#aE"/><use transform="matrix(0.024691358024691343,0,0,0.024691358024691343,67.5555555555555,0)" xlink:href="#aJ"/></g></defs></g></svg>